/* XPM */
static char *ce73e8ae0caf4562dcafa63746d8cec1PKfvTd1oMxHGkX5m[] = {
/* columns rows colors chars-per-pixel */
"64 64 255 2 ",
"   c #160C05",
".  c #1B1409",
"X  c #231A09",
"o  c #35160F",
"O  c #2A2409",
"+  c #2A2713",
"@  c #373111",
"#  c #2C1D2D",
"$  c #362E2D",
"%  c #3A3425",
"&  c #4E2816",
"*  c #75291A",
"=  c #463A27",
"-  c #4F3233",
";  c #6C3029",
":  c #60581E",
">  c #4E4C33",
",  c #585737",
"<  c #6C4D33",
"1  c #686628",
"2  c #746D32",
"3  c #3F3B48",
"4  c #4B3249",
"5  c #732D49",
"6  c #79364C",
"7  c #7B3856",
"8  c #4F3777",
"9  c #575847",
"0  c #504F50",
"q  c #6F5652",
"w  c #716A4D",
"e  c #54506A",
"r  c #6E516E",
"t  c #55646B",
"y  c #726A6C",
"u  c #93301C",
"i  c #943628",
"p  c #A73A26",
"a  c #BF4019",
"s  c #944737",
"d  c #A94636",
"f  c #B14E33",
"g  c #B64B3A",
"h  c #857536",
"j  c #CC5129",
"k  c #C4583A",
"l  c #D66338",
"z  c #E86937",
"x  c #B61151",
"c  c #862C56",
"v  c #85385A",
"b  c #B52758",
"n  c #8B3B61",
"m  c #993D67",
"M  c #9D3F71",
"N  c #A53868",
"B  c #B33369",
"V  c #A93B72",
"C  c #B63C75",
"Z  c #C9004B",
"A  c #D30054",
"S  c #D9005B",
"D  c #FB205D",
"F  c #CC1C65",
"G  c #D81266",
"H  c #EC0B6F",
"J  c #CB2566",
"K  c #D32D6C",
"L  c #D62A72",
"P  c #C93776",
"I  c #D73679",
"U  c #D93B7E",
"Y  c #E8337A",
"T  c #8B4F52",
"R  c #B8584A",
"E  c #897B48",
"W  c #937056",
"Q  c #B66A57",
"!  c #8F4A67",
"~  c #964568",
"^  c #A94473",
"/  c #B14871",
"(  c #B7437B",
")  c #A65776",
"_  c #936B6E",
"`  c #AD6D73",
"'  c #C75A46",
"]  c #CD5755",
"[  c #CA6749",
"{  c #D16D4D",
"}  c #C96756",
"|  c #D76856",
" . c #D87658",
".. c #E66E4A",
"X. c #E87647",
"o. c #E67955",
"O. c #EC4865",
"+. c #C57967",
"@. c #CB726F",
"#. c #D97A67",
"$. c #E76E6F",
"%. c #E57964",
"&. c #988A31",
"*. c #938451",
"=. c #A6944A",
"-. c #92816D",
";. c #B18874",
":. c #DF845B",
">. c #F2834C",
",. c #EA8257",
"<. c #F28759",
"1. c #D9866F",
"2. c #E88668",
"3. c #F58B66",
"4. c #EA936B",
"5. c #F6936A",
"6. c #EB8975",
"7. c #F48C77",
"8. c #EA9579",
"9. c #F79979",
"0. c #FBA27E",
"q. c #5F3E9D",
"w. c #5B4692",
"e. c #6A558D",
"r. c #79749A",
"t. c #5B46A8",
"y. c #5D4CB1",
"u. c #6E4DA9",
"i. c #F51E82",
"p. c #DA3E80",
"a. c #F3348A",
"s. c #FA3A99",
"d. c #FF3DA4",
"f. c #FF3DAB",
"g. c #925695",
"h. c #AF5286",
"j. c #907390",
"k. c #A86684",
"l. c #B86889",
"z. c #B0728E",
"x. c #B96998",
"c. c #B97598",
"v. c #936CB0",
"b. c #AF78A6",
"n. c #C64882",
"m. c #DA4483",
"M. c #D05490",
"N. c #E24683",
"B. c #EC4A96",
"V. c #C77096",
"C. c #EC6F8C",
"Z. c #E74BA0",
"A. c #FF43A5",
"S. c #FF48A7",
"D. c #FF44AB",
"F. c #FF4AAD",
"G. c #FE58AC",
"H. c #FF44B4",
"J. c #FF4CB1",
"K. c #FF52B4",
"L. c #FF57B8",
"P. c #FF5CBB",
"I. c #C97AA4",
"U. c #D779A7",
"Y. c #F36CAE",
"T. c #FE7ABA",
"R. c #FF5CC2",
"E. c #FF69C5",
"W. c #FF73CA",
"Q. c #FF7ACA",
"!. c #FF7ED1",
"~. c #7481B1",
"^. c #7F95C2",
"/. c #968398",
"(. c #B4898F",
"). c #8E8BB0",
"_. c #9795BB",
"`. c #AE92AB",
"'. c #A799B6",
"]. c #B5A4B7",
"[. c #D08F8E",
"{. c #C89897",
"}. c #E79589",
"|. c #F79B84",
" X c #C9A792",
".X c #FAA787",
"XX c #E7A693",
"oX c #FCAB94",
"OX c #FCB399",
"+X c #C98FA9",
"@X c #D384AB",
"#X c #D68BB3",
"$X c #D995B9",
"%X c #ED8CB6",
"&X c #EB94BC",
"*X c #CDAAB1",
"=X c #D7B5B6",
"-X c #E7B4AC",
";X c #FCBBA7",
":X c #DEC6BC",
">X c #F3C2B4",
",X c #889FCD",
"<X c #979BC2",
"1X c #A999C3",
"2X c #99A5CE",
"3X c #A8A8C9",
"4X c #B6AAC7",
"5X c #B9B2CC",
"6X c #A9AED3",
"7X c #B9B8D6",
"8X c #FE84C7",
"9X c #FF8CCB",
"0X c #EA9AC4",
"qX c #E995C9",
"wX c #F89AC7",
"eX c #FF84D3",
"rX c #FF8CD4",
"tX c #FF93D3",
"yX c #FF9BD6",
"uX c #FF95D9",
"iX c #FF9CD9",
"pX c #CDA9C5",
"aX c #C5B4CB",
"sX c #D5BBC5",
"dX c #C3BBD5",
"fX c #C7BBD6",
"gX c #C4BDDA",
"hX c #FBA1CD",
"jX c #EBAED8",
"kX c #FFA3D4",
"lX c #FFA9D6",
"zX c #FFA4DA",
"xX c #FFABDC",
"cX c #E7B0D8",
"vX c #FFB2DE",
"bX c #FFB9DF",
"nX c #BDC0DD",
"mX c #DFC0C2",
"MX c #C5C3DC",
"NX c #CCC6DB",
"BX c #CBC4DC",
"VX c #D2C9DD",
"CX c #E7C9C7",
"ZX c #ECD0D2",
"AX c #C6C7E1",
"SX c #CCCBE3",
"DX c #D2CDE2",
"FX c #DBCEE3",
"GX c #CFD1E6",
"HX c #D4D1E6",
"JX c #DBD2E3",
"KX c #D5D3E9",
"LX c #D9D6EB",
"PX c #DCD9EC",
"IX c #E1DCED",
/* pixels */
"1 1 1 T M.rXuXyXuXuXrX!.L.D.h.9 0 r q.8 4 8 t.t.t.t.u.u.g.v.k.V.V.k.u.y.y.t.u.p.P n.h.( ( C V V C Z.m.m.N.N.N.N.O.N.U I K b b B ",
"1 1 2 w V.eXyXiXuXuXeXW.R.D.n.9 e w.q.8 4 q.t.y.y.u.v.1XaXsXpX*X{.x.u.y.u.t.u.h.h.n.P ( ( C V N ( p.N.m.N.N.N.U U N.O.I K b b K ",
"1 1 1 T V.eXyXiXyXuXrX!.P.F.n.t w.t.w.8 4 q.y.y.r.`.sXCXJXCXCX=X*X+Xv.y.u.t.u.C ( ( ( C C V V V n.N.N.m.N.N.a.N.N.Y U K b b J J ",
": 1 2 E V.9XyXzXiXuXrXW.E.G.( e t.t.t.8 4 8 u.-.(.CXZXmXmXCXmX=X*X*X`.v.y.t.u.( ( ( ( ( V V V V n.m.m.N.m.N.N.N.N.Y Y K b b J J ",
", 1 2 *.c.tXyXiXiXuXrXW.P.D.M.r t.t.t.8 4 e.-.=.:XZXZXZX:X:XmXmX=X X*XpXv.u.u.n.( C ( C C V M V n.p.p.p.m.m.N.p.Y I K J b b F F ",
", 1 1 w V.tXyXkXiXuXrX!.E.F.M.w.t.t.t.e w =.=. XZXZXZX>XZX>X:XmX=X=X=X=XjXv.u.h.^ ( ^ C V V N C n.p.P p.p.m.p.p.U I L b b J J J ",
"> , , w l.tXyXyXiXuXuXQ.E.F.M.q.t.t.t.t &.=.=.:XZXZXZXZXZXZX>X-X1.+.[.{.pX1Xu.V / ^ V ^ V V N ^ p.p.p.p.p.m.p.U I I J b b K F J ",
"0 0 1 2 V.wXyXyXiXiXrX!.P.F.Z.u.t.t.e.h &.=. X=X:XZXZXZX>X:X:X1.f d d +.*XqXu.g.^ N ^ ^ V N N V p.p.p.p.p.p.p.U I L J x b G J F ",
"t w 1 h l.tXyXzXiXuXrX!.E.F.Z.u.y.e.w &.&.E  X=X>X>X>XZX-X-X-X{ f g g Q *X*Xv.h.^ N ^ N ^ N m ( p.p.I I I p.p.I L L J b F J J F ",
"e w 1 q V.tXyXiXiXiXuX!.E.F.Z.u.w.w 1 2 1 t  X-X-X-X-XCX-X-X}.] [ | { ;.=X*Xc.h.m m N ~ m m N ( p.p.I p.p.p.I I L J x x F F F F ",
"# 0 , q V.9XyXkXiXiXrX!.E.F.Z.j.t 2 1 1 9 9  X>X-X}.}.XX|.XX$.| %.6. .1.[. X+X) m m ~ m m m V C C L I p.p.I I L L b x b F F F F ",
"$ 3 9 r x.eXyXiXzXiXuXeXE.G.Z._ &.1 , 9 9 t (. XXX1.}.7.$.}.#.| %.%.#.1.;.[.@X) n m m ~ m ~ ^ h.p.P P P p.P I P L J b F G F F F ",
"3 $ 0 8 x.tXyXzXkXyXuXeXW.F.B.E 2 2 , 9 , t `  X X2.8.2.8.|.%.%.7.2. .| +.[.c.g.v n n n n n ~ C C L P P K P P J K F Z x x x x x ",
"3 # 4 e.x.tXyXzXzXyXuXeXE.G.a.E 2 2 9 9 9 0 (.8.1.4.|..XoXoX|.|.7.2.} } Q [.z.g.v v v 7 v v m ( C C C C B B B K I F Z Z x x Z Z ",
"4 4 4 r x.tXiXzXzXiXuXeXW.J.Z.q , , 9 9 0 t [.[.:.8.8.1.} #.7.7. .d d R } [.b.g.v 7 v v v 7 m V B B B B N N N P Y F A Z Z Z Z Z ",
"# 4 4 ! l.tXkXzXzXiXyX8XW.J.B.q 9 > 0 0 0 e 1.}.8.9. .s * f %.%.d i R [ R 1.b.) v v v ! ! n ~ V N B N B N N b P Y L A Z Z Z Z Z ",
"# 4 4 r V.tXkXxXzXzXuXeXW.K.N.h 9 > 0 3 3 < 1.8.|.8.{ s T ' %.] ; ; g } Q 1.x.k.n n 7 ! n ! m N N N N b N N b P p.L S A A Z A Z ",
"4 r r q @.tXzXzXzXyXiXeXW.F.N.s > > = = > : %.8.|.9.8.8. .2.|.R R R d } } } l.l.! 7 7 7 7 7 v v c c c 5 c m N P p.L S S A A Z A ",
"k.b.b._ z.tXzXxXxXzXiXrXW.G.s.q > = % = = : { 7.|.9.oX.X.X|.oX#.#.#.#.| } / [.x.n 7 7 7 7 7 7 7 7 7 7 5 5 N / P a.L S S A A A A ",
"b.#X$Xj.c.yXkXzXzXzXiXeXE.K.a.9 = = % % = : } 5.7.|.oXoX|..XoX#.#.|.6. .R } @Xz.7 7 7 7 7 7 7 7 7 5 5 5 5 m ( M.N.L H S S A A A ",
"I.#X+X(.V.kXlXxXxXzXiXeXW.K.A.; = = % $ % % T 5.7.7.|.|.|.|.oX$.| |.$.| k @.@Xl.! 7 v 7 7 7 6 6 5 5 6 5 5 N ( C.B.Y H S S S S A ",
"I.@X@Xz.V.kXzXxXxXzXiXeXE.J.B.T = $ + + @ = > :.3.5.7.7.7.7.|.%.| 7.%.| ' [.[.z.! n v v v T c 6 5 7 6 5 c N ( U.T.a.H S S S S A ",
"I.U.U.g.c.yXxXxXxXzXzXrXW.K.s.; - & + # > , w y 1.3.3.%.7.$.| ] ' %.$.| ` ;.;.z._ ) ~ ~ ! ! v T n n v 6 c V h.Y.%XG.i.H S S S A ",
"I.U.I._ c.yXxXxXxXxXyXeXW.K.a.q = % $ 9 w w t e @.3.3.%.7.6.} g g ' | } W *.-.=.W Q W W W W T T ) ` ~ v 5 V ( Y.wXT.s.H H S S A ",
"#X$X$X`.#XyXzXxXvXzXzXrXE.K.s.6 % $ 9 y y y e 9 Q 3.3. .#.$.$.} b f ' } W E E E *.E &.*.*.*.*.E ;.z.k.7 c V ( U.wXT.S.s.H H S S ",
"b.@X+X#XqXiXxXvXvXxXzXrXW.K.s.5 $ 0 9 t e e 9 , W 3.2.%.] @.} b u f ] R ` _ W h w 2 w E w *.w *.=.-.) n c / h.Y.wXT.S.A.s.H S S ",
"x.) ^ ) U.iXxXvXvXxXzXrXW.K.s.! 3 0 e 0 0 0 9 q _ ,.2.7.7.$.O.] R } ' ; ! x.l._ _ 2 h w w w w *.E W q n n h.n.T.wXT.G.A.d.s.H H ",
"V.l.k.h.U.hXxXvXxXxXzXrXW.K.s.! 0 3 e 3 0 9 t g.z.o. .4.6.o.| ] ' ' i - - k.x.v.k.` W E 2 w 2 w h w 0 7 m U.U.%XtXT.F.F.A.f.i.i.",
"V.U.b.U.Q.jXxXvXvXxXzXrXW.L.d.^ 0 e 0 0 q e.u.j.T { { 4.4.o.| | } s u o - z.z.g.l.k.` ` W < > 9 w w 0 q m U.%X%XwXT.G.F.A.A.s.s.",
"U.U.I.I.qXiXxXvXxXxXzXrXW.R.d.M.k.k.k.k.x.b.b.T ; { k  .6.8.%.o.} i * o - ].c.x.l.l.l.` ` < > < 2 2 0 7 m U.qXwXyX8XG.F.S.A.s.s.",
"U.U.#X#XqXhXxXvXvXxXzXuXW.L.f.n.) / ) ) h.x.` 6 ; { [ f  .2. .| d * * o 9 ].`.b.z.l.l.l.` < : : 1 w y ~ ^ @X&XwXhX%XK.F.D.d.d.s.",
"#X#X#X#XQ.yXxXvXvXxXzXuX!.R.d.M.V.l.l.V.l.V.` q <  .X.k d g ' g u u u o 4 ].~.r.).`.`.I.x._ T W W W k.h.n.U.&XwXyXQ.K.F.D.f.d.s.",
"@XU.@X@X%XzXxXvXbXxXzXuX!.R.f.U.@XU.@X@X@X+X(.T T  .o.o.k u u u u i u o ; ].).<X<X7XAX7X4X`.c.z.k.k.k.l.U.%X%XwXyX8XK.F.F.A.d.s.",
"_ _ W _ I.hXxXvXxXxXzXuX!.H.f.Y.@X@X#X#X#X$X{._ { ,...o...j u p u u u o - ]._.).<X7XLXLXKXKXBX4Xc.k.`.V.@X&X&XwXkXT.K.F.F.A.d.d.",
"@ @ @ > k.zXvXvXvXvXzXuX!.R.f.Z.@X#X#X$X&X*X*X_ { :...o.....j p u p u & - '.<X).<X3XAXLXLXLXKXKXBXpXfXpX%X&XwXwXkX8XK.J.F.D.d.s.",
"O O O @ ` yXxXvXvXvXzXuX!.R.f.U.#X#X$X$X&XpX*Xz.f >...o.o.l z j d u u * ; `.).,X<X6X7XHXKXKXKXSXSX7XdXVX&X&X&XwXhX8XK.G.F.A.d.A.",
"X + + @ ) hXxXvXvXxXxXuX!.E.H.Y.#X#X$X&X$XfX5X(.s X.>.X.o.o.......k g k [ /.).<X).6XAXLXKXKXHXDXBXMX7XSX&XqXwXwXkX8XL.F.F.D.d.d.",
". + % % ) uXxXvXvXxXxXuX!.E.f.P.#X#X#X$XpXaX5X`.< Q 4.4.3.o...3.3.,.<.,.,./._.3X6XBXFXKXHXKXHXDXgXgX7XnX0X&X0XhXkX8XL.K.F.S.d.d.",
". . . % k.uXxXvXvXxXxXuX!.E.f.M.z.(.[.].2XMX5X'._ f 9.9.7.3.<.5.5.5.5.5.8.3X<XnXKXLXKXKXHXLXKXFXgXdX5XnX0X0X0XhXlX9XL.K.F.D.d.d.",
". . . . h.iXxXvXvXxXxXuX!.E.H.h.: < j.3XAXHXMX5X;.d <.9.9.9.3.9.|.|..X0.}.'.).AXKXLXKXKXHXLXKXDXfXdX4XgX0X0XwXhXhX9XL.K.F.d.d.d.",
"O O + O _ iXxXvXvXxXxXuX!.W.H.( @ -.6XGXGXPXSXnX/.` 2.9.9.0.9.oXoXoXoX.XXXj.~.MXGXLXLXKXHXHXHXDXgX3X3XnXcX&X&XhXlX9XL.F.D.d.d.d.",
". O O O ` tXxXxXvXvXxXuX!.W.H.V w nXKXKXKXIXGXSX_./.*XOX9.0.oX;XOXoX;XoXXX_.4XMXHXLXLXHXHXKXLXDXMX1X3XAXJX&XhXhXkX9XL.J.F.D.f.d.",
". O O O ) yXxXvXvXxXxXuXeXE.H.M.].GXLXKXKXIXDXSXnX5X5XmX8.9..X;XoXoX;XOX-X'.nXSXGXGXLXHXLXLXLXSXBX'._.SXsXwXhXhXlX9XG.J.D.f.d.d.",
"O O . O ) yXxXvXvXxXxXiXuX!.R.cXPXPXLXKXKXIXKXSXNX5Xy `.1.8.0.oXoX;X;XOXXX5XNXSXSXHXLXHXLXLXKXSXfX_._.fX$X&XhXhXkX9XL.G.F.D.A.d.",
"O O O X ) yXxXvXvXxXxXiXrX!.qXLXLXLXPXLXLXPXIXSXSXNX_ /.{.8.0..XOX>X>X.X.XnXNXMXNXGXKXSXKXKXKXSXfX).).fX[.&XhXhXlX9XL.J.D.D.d.d.",
"@ @ O   ~ wXlXvXvXxXxXiXuXqXFXIXLXLXLXLXLXPXIXSXSXNXAXnXsX}.0..X>XOX>X.XXXmXNXnXSXHXKXSXHXHXKXSXfX).1X{.#.&X&XhXlX9XL.J.F.D.D.d.",
"O @   X ) yXxXvXvXxXzXiXjXDXPXLXLXLXKXPXLXPXIXHXGXSXHXHXVX}.9.0.oXoX;XOX8.MXMXnXMXGXGXAXSXGXGXnX5X`.z.[ { &XhXhXlXtXL.J.J.D.f.d.",
". . X O ) yXlXvXvXvXzXjXBXFXLXHXGXKXKXPXLXPXIXPXHXSXSXDXDX{.5.9.0.0.OX;X.X:X_._.5XSXAXnX7X6XnX7X4X/.R k l %X0XhXlX9XL.J.F.D.D.d.",
"  . O O ) yXlXxXvXxXzXcXSXJXKXDXGXDXHXIXLXPXIXPXGXGXGXGXLX{.2.5.0.0.OX;XOX=X3X6XnXMX7X5X2X<X,X_.).j.R R [ 1.0XkXzX9XL.J.F.F.D.d.",
". @ + O ) yXxXvXvXxXzXjX7XgXDXVXNXJXHXIXPXPXIXPXGXGXNXGXLX X,.5.0.0.OX>X>X>XMX5X5X4X<X~.~.^.2X2X<X`.R k k { XXyXlX9XL.J.J.D.D.f.",
"O O O . ) uXxXvXvXvXzXjX4X3XBXBXNXGXGXPXLXPXPXPXPXGXGX].]. X:.5.<.0..X>X>X;X'.~.~.<X_.).,X7X7X3X~.].} k [ { 6.&XlX9XP.J.J.J.D.d.",
"X   .   ) kXlXvXbXxXzX9X4X5XdXdXNXNXHXPXLXKXPXKXPXKXGX].`.`.:.<.>.0.0.OX>X;X3X2X6X7X5X'.6X6XdX7Xy `.+.k [ :.:.%XlXtXP.G.J.D.D.d.",
"  .   X / yXlXvXbXxXzX9XqX6X4X7XNXNXHXJXPXGXPXKXJXGXnX^.nX X} :.>.0..XOX>X>XmX7X7XgXgX4X'.j.`.].`.`.} k '  .:.}.kX9XL.K.J.D.D.D.",
". X X O ) yXxXvXbXxXzX9XqX3X6X3XnXNXJXHXKXGXKXGXGXNXNX2XnX/.:.>.z 5.0.OX>X>XmX6X7XgXgX7X6Xg.e.b.].(.R k [ [ :.1.&XtXP.J.F.D.D.f.",
"O O . X ) yXxXvXbXxXzX9X9XfX7X3X].nXVXGXKXGXGXnXnXnX].).3X].:.,.z >.5.0.;X;X0X6X7X7XgXfXfX4X1X1X].) f k k [  . .XX9XP.K.F.F.D.d.",
"X X     ~ yXlXvXbXxXkXtXQ.&XfX2X_.nXVXJXGXNX5X<X<XnXnXnXnXMX .z j >.>.5..XoX-X6XgXgXgXgXgXgXpXgXfX` p k k '  . .6.tXP.K.J.F.S.G.",
"X . . . ) yXlXvXbXxXxXtXW.Y.NX6X2X3XVXNX].3X2X6X2XGXSXAXNXNX@...j X.>.>.5.0.0.nX7XgXVXgXVXgXpXgXBXc.p d R ' {  .#.8XP.K.H.F.D.Y.",
"X X . . ) yXxXvXbXxXzXuXQ.T.pXsXBX3XaX].<XSXnX6X'.SXNXAXNXMXz.l j z >.z X.<.4.nXaXfXBXBXVXfXfXfXBX`.i g k ' [  . .%XR.K.J.D.d.a.",
"X . + + ) yXxXvXbXxXzXtXQ.G.O.%.1.'.].).].7X7X5X).NXNXNXNXAX[.g a z >.X.z X.:.].1X_.aXBXBXfXfXfXMX].i g g ' [  . .C.P.K.J.H.D.i.",
". . . . ) yXxXvXbXxXxXuXQ.F.D z l Q -.'.'.nX].r.r.NXDXSXMXnX{.f a z X.>.z l l  X1X3XgXVXVXfXgXaXfX4XT p g ' '  . .$.Y.K.J.J.D.H ",
". .     ) tXxXvXbXxXzXtX8XG.D O.<.5.1.]./.*X/.e.].GXDXNX7X5X].f f z >.9.5.<.4. XgXAXgXDXVXfXgX4XfX4XT i d R ' |  .#.G.L.J.F.A.i.",
". . .   ) yXlXvXbXxXxXyX8XP.D z 5.5.XX*X].].j.<X7XVXNXnX'.r (.d f >.5.0.0.0.0.-XgXgXgXSXDXfXfXaXfXaXq u d g ' .. . .C.L.L.P.Y.S.",
"    X . ^ yXxXxXvXxXzXyX8XP.i.O.5.<.8. X=X(.].5XMXDXDXNX]._ ].W l 4.<.0.OXOX0.XXfXgXgXDXDXfXfX4X4XaX! * i d k { ,.:.C.L.P.8X8XG.",
"    o . ) iXxXvXbXxXzXyXeXT.O.O.5.<.>. .Q _ ].5X5XDXJXDXVXfXfXQ [ 5.,.4.OX-X0.8.fXgXgXSXFXfXgXaX7X4X_ & i p p g ,.<.2.G.P.9X8XY."
};
