/* XPM */
static char *fba663f5888a453ff29713e592e10c52G01FGZ0JF9SR5Kir[] = {
/* columns rows colors chars-per-pixel */
"64 64 256 2 ",
"   c #09060D",
".  c #150C0D",
"X  c #0C0B14",
"o  c #040C1B",
"O  c #0C0D1A",
"+  c #050814",
"@  c #120E13",
"#  c #150E19",
"$  c #0C121D",
"%  c #07111B",
"&  c #141115",
"*  c #1C1314",
"=  c #13121C",
"-  c #1B141B",
";  c #1E1A1A",
":  c #1C130D",
">  c #250D15",
",  c #241415",
"<  c #2B1413",
"1  c #22151C",
"2  c #2B161A",
"3  c #251B1B",
"4  c #2B1A1B",
"5  c #271A15",
"6  c #331C1D",
"7  c #361918",
"8  c #251111",
"9  c #2A211C",
"0  c #38231D",
"q  c #180923",
"w  c #0C1423",
"e  c #091829",
"r  c #121423",
"t  c #181829",
"y  c #181C33",
"u  c #0A1529",
"i  c #241B23",
"p  c #2B1D23",
"a  c #251726",
"s  c #331C23",
"d  c #361B27",
"f  c #271C36",
"g  c #220E29",
"h  c #182537",
"j  c #152B36",
"k  c #2C2323",
"l  c #2A242A",
"z  c #332323",
"x  c #3B2525",
"c  c #3B242B",
"v  c #3B2B2C",
"b  c #342829",
"n  c #3A312C",
"m  c #282638",
"M  c #372A36",
"N  c #393438",
"B  c #2B343A",
"V  c #43261B",
"C  c #421F2F",
"Z  c #452928",
"A  c #48332C",
"S  c #56362B",
"D  c #472B36",
"F  c #433334",
"G  c #43363A",
"H  c #493839",
"J  c #563935",
"K  c #532D31",
"L  c #643C3A",
"P  c #401A17",
"I  c #594339",
"U  c #4A443E",
"Y  c #67453C",
"T  c #1A3848",
"R  c #083756",
"E  c #163A58",
"W  c #0E2E48",
"Q  c #282B43",
"!  c #382B45",
"~  c #283547",
"^  c #373647",
"/  c #2A3C56",
"(  c #303456",
")  c #0D3865",
"_  c #182B5A",
"`  c #473946",
"'  c #583A48",
"]  c #493A53",
"[  c #573957",
"{  c #4D2E46",
"}  c #653851",
"|  c #6A3967",
" . c #543969",
".. c #374758",
"X. c #334953",
"o. c #124D6D",
"O. c #385967",
"+. c #285773",
"@. c #365877",
"#. c #2F4C6D",
"$. c #3C697C",
"%. c #165164",
"&. c #474347",
"*. c #574748",
"=. c #5A544A",
"-. c #474757",
";. c #5A4957",
":. c #5B5458",
">. c #445758",
",. c #664748",
"<. c #675649",
"1. c #674955",
"2. c #665657",
"3. c #77585B",
"4. c #774F50",
"5. c #6B6255",
"6. c #484865",
"7. c #584966",
"8. c #495768",
"9. c #585868",
"0. c #4C5274",
"q. c #684965",
"w. c #774965",
"e. c #675867",
"r. c #755965",
"t. c #6A5A74",
"y. c #775475",
"u. c #586478",
"i. c #536670",
"p. c #696366",
"a. c #786568",
"s. c #676A78",
"d. c #766578",
"f. c #677778",
"g. c #797377",
"h. c #7A746A",
"j. c #586258",
"k. c #845771",
"l. c #856878",
"z. c #887879",
"x. c #967776",
"c. c #8D6F6A",
"v. c #8B6A62",
"b. c #9D8277",
"n. c #8A827A",
"m. c #A78376",
"M. c #09588F",
"N. c #356F91",
"B. c #087DB7",
"V. c #1978BA",
"C. c #1173AC",
"Z. c #2876AC",
"A. c #287BB9",
"S. c #3779AE",
"D. c #285C86",
"F. c #505883",
"G. c #587589",
"H. c #497598",
"J. c #577798",
"K. c #4E698D",
"L. c #776985",
"P. c #787687",
"I. c #677998",
"U. c #71718F",
"Y. c #5079A7",
"T. c #717AAB",
"R. c #705985",
"E. c #047DC3",
"W. c #047CCA",
"Q. c #0A7AC7",
"!. c #1D7CC3",
"~. c #267EC1",
"^. c #856989",
"/. c #857588",
"(. c #987788",
"). c #897A95",
"_. c #927593",
"`. c #8F79A9",
"'. c #9B6D9A",
"]. c #0282BD",
"[. c #0880BC",
"{. c #3884BB",
"}. c #2B83AF",
"|. c #39819C",
" X c #75858B",
".X c #7B8597",
"XX c #69858E",
"oX c #5785AB",
"OX c #4987BA",
"+X c #5989B8",
"@X c #4A89AA",
"#X c #6784A8",
"$X c #7787A7",
"%X c #6C8CBC",
"&X c #668AB9",
"*X c #758BB9",
"=X c #6B93BC",
"-X c #7A96BA",
";X c #6C95A7",
":X c #658C9E",
">X c #0182C3",
",X c #0281C9",
"<X c #1A87C8",
"1X c #0E85D9",
"2X c #2482C3",
"3X c #2C84C5",
"4X c #2986C9",
"5X c #3386C4",
"6X c #3A85C4",
"7X c #3486C8",
"8X c #3789C8",
"9X c #2F8BD1",
"0X c #4286C4",
"qX c #4E8BC4",
"wX c #4988C4",
"eX c #5B8BC3",
"rX c #568AC5",
"tX c #5694C9",
"yX c #678CC1",
"uX c #6998C5",
"iX c #7199C4",
"pX c #76A7CE",
"aX c #898699",
"sX c #978599",
"dX c #928C8D",
"fX c #AD9193",
"gX c #BAA398",
"hX c #8788A7",
"jX c #9889A5",
"kX c #9A94A9",
"lX c #8689B7",
"zX c #8696B9",
"xX c #9291B1",
"cX c #A58DA4",
"vX c #A695AA",
"bX c #B397A9",
"nX c #A99AB5",
"mX c #AE94B7",
"MX c #94A6B1",
"NX c #B5A4BA",
"BX c #AEA7B3",
"VX c #80A09F",
"CX c #C9968F",
"ZX c #D5AA96",
"AX c #E6A697",
"SX c #ECAF98",
"DX c #D1AFAB",
"FX c #EDB7A8",
"GX c #C191B1",
"HX c #EEC2A8",
"JX c #D1C0A6",
"KX c #B6AEC6",
"LX c #96A0C5",
"PX c #CABDD3",
"IX c #C9C5CD",
"UX c #B4C3C0",
/* pixels */
"V.A.!.!.2X2X2X2X}.2X3X3X3X3X5X5X8X{.4X4X8X{.8X{.5X{.5X8X6X5X8X{.{.{.8X9X9X<X<X9X2X~.Y.N.yX~.!.W.W.1XW.W.W.Q.Q.Q.Q.Q.E.>X>X].].].",
"V.V.V.V.V.2X2X2X2X2X3X3X{.3X5X5X4X{.5X{.8X4X5X5X5X5X{.8X5X5X6X{.{.{.9X<X<X9X9X4X~.S.Y.N.iXOXQ.1XW.,X,XW.W.Q.Q.Q.Q.Q.E.E.E.].].].",
"!.A.~.V.!.2X!.4X2X2X3X3X3X7X5X5X{.4X4X5X{.{.4X{.4X8X8X8X6X5X5X8X{.8X9X}.<X9X8XA.A.Z.H.F.=X@XC.Q.>X>X,X,X>XE.Q.Q.Q.Q.Q.W.E.E.>X].",
"!.!.!.!.!.<X4X4X2X4X2X3X3X3X5X5X5X4X{.5X4X8X8X8X{.5X5X5X8X6X8X8X{.8X9X9X2XA.S.OXOXoX#XU.zX=XZ.V.[.].>X>X>X>X>X,XW.W.W.W.Q.Q.E.Q.",
"V.V.!.!.!.!.~.~.4X~.4X3X3X7X4X7X{.4X5X5X5X4X7X5X4X8X4X8X8X8X7X7X3X5X9X9X4X}.@X+XoX#X.XP.MXLXqXV.[.[.].].>X>X>X>X,X,X,XW.W.Q.Q.Q.",
"!.V.~.!.~.~.~.~.~.4X~.7X3X7X3X7X4X4X4X8X5X7X7X5X5X8X5X5X8X8X7X5X7X9X3X5X{.OXY.K.@.i.e.e. XMXuXZ.C.[.[.[.>X>X>X>X>X,X,XW.W.Q.Q.Q.",
"V.!.~.~.~.~.~.~.~.4X~.7X~.7X7X7X5X{.5X3X5X5X5X8X5X8X5X8X8X8X8X8X7X9X3XA.@X@X@.X.~ ..*.2.p..XpXS.[.].[.[.>XQ.Q.E.W.E.>XE.E.W.W.E.",
"C.C.C.A.~.~.~.~.~.~.7X~.7X7X~.5X4X{.{.5X5X{.6X6X{.5X8X8X5X6X8X6X6X6X{.OXH.O.~ h B ` J <.2.XXpX}.V.[.[.>X>X>X[.E.E.E.E.E.E.E.B.B.",
"M.M.Z.~.0X~.0X~.~.0X~.0X0X~.0X0X{.8X8X6X6X{.5X8X9X0X0X9X0X0X0X0X0X0XOXY.@.~ m l l H J *.p.MXuX{.2XQ.Q.Q.E.,X>X>X>X].].B.C.C.C.C.",
"~.Y.~.S.Y.0X0X0X0XwX0X0X0X0XwX0XtXOX{.OXwXqXqXwXwX0XwX0X0XwXwX0XOXqXOXH...B l 9 b v x A p.KXpXA.!.!.<X,X,XB.B.].B.B.C.C.Z.Z.S.S.",
"rXwXqXqXwXwXwXOXrXrXwXY.rXrXrXwXOXqXtXtXtXOXtXqXrXrXrXrXrXwXrXrXrX+XoXK.~ M b 9 c c 0 x 2.MXpXZ.~.4XC.B.<XB.B.C.C.C.S.S.Y.Y.T.T.",
"OXY.rXY.eXeXyX+X+XeXeXeXrXeXrXtXS.tXtXS.tXtXOXtXrXrXrXrXrXrXrXrXeX+X+XJ.X.n 9 0 s s b 5 N U.+XZ.{.A.o.M.}.Z.A.S.{.@XoX*XT.`.T.T.",
"yX+X&XY.&X&X&XyX&XyXyXyXyXyXyXyXY.+XD.) OXuX+XuXeXeXeXyXyXyXeXeXeX+X+X#X] k 9 k s c F 4 b u.+X{.}.N.o.o.OXY.yXlXlXT.`.`.`.U.R.U.",
"T.&X%XiX*X*X%X%X*X%X*XyXyXyXyX&X&X=Xo.W Y.pX&XyXyXyXyXyXyXyXyXeXeXeX&XJ.-.i ; 9 d c *.&.D G.oXY.@XoXN.oXzXlXxX`.`.'.'.^.R.R.t.q.",
"F.J.T.zX-X*X*X*XyXlX*X*XiX*X*X%XyXuXK.E &XiX%X%XyX%XyXyXyXyXyXyXtXtXeXD.6.l ; 9 a d ` *.D 9.K.N.xXjXjXjXjX`.).`.^.^.^.^.k.k.y.w.",
"@.K.T.*XlXlXlXlXlXlXlXlXlX*X-X*XyXT.H.D.%XiXiXiX=XiXyXuXyX*XyXyX&XyXY.E ..M l t d d M H i 8.H.&XxXjX`.).^.U.R.R.`.R.^.^.^.k.k.| ",
"G.J.I.T.mXLXhXjXjX`.jXmXlXlXlXzXzX-XF.W H.iXY.H.uX=X*X%X$X$X$XzX$X#XJ.i...m l 5 d c c G B I.oX+XoXI.U.L.f. XP.T.U.R.R.R.R.w.| | ",
"T @.J.F.`.mXcXvXbX'.GX`.`.LXlXK.I.iX%.j D.) E +.;X-X#X8.6.G.L.d.u.9.../ B l t 4 2 6 c m 9.-X;X+XN.o.u.T.i. XXX0.K.#XT.F.| } K } ",
"e R +.#.T.DXfXgXfXCXGXbXmXLXR.y #.H.+.R o.W +.@.#XG.( m ! -.q.2.*.X.B m t t 9 5 s 6 G a G.zXH.N.N.+.K.O.%.;X:X%.o.N.+XK. .[ { 1.",
"E +.%.%.u.BXgXCXCXCXCXGXmXT.0.Q W +.%.T $.$.G.0.u.( t M D K ' 3.,.U n k 3 5 < < 7 2 D ^ .X-XY.oX@XN.@.E %.|.@XN.+.D.@XJ.0. .[ 1.",
"R.-X$.O.8.BXZXAXAXAXDXBXXXi.dXMX%.$.E R -XXXO.X.B m v x V V I Y <.Y A 7 < < < < 7 > d t.zXzX=X&XY.D.F.W R o.@X+.S.N.Y.Y. . .| [ ",
"/.UXXX>.j.UXDXFXAXFXDXdXf.j.fXJX>.O.T XXMXO.m B ; z b x V P S Y Y Y S 7 7 7 7 7 7 d d R.xXzX&XY.K.H.D.u %.o.|.%.o.S.yXK.R.| | | ",
"g.UXVXX.f.MXc.DXDXZXJXm.fXn.ZXZX5.B B  X9.t l l 0 9 5 0 V V V I Y Y S 0 7 V Z 7 6 ' [ e.hXLX*X#XyXY.F.#.J.+.%.|.R N.T.J.R.| } | ",
"n.IXUXj.f.h.9 BXJXDXZXZXZXm.SXSXBXj.` &.1 b l z 9 0 0 0 0 0 0 S Y Y I V 0 V Z C 1.cXjXt.hXLXT.$XlXF.K.K.K.J.+.N.%.D.T.T. .{ | | ",
"/.BXMXp.f.X.n DXDXDXZXFXZXSXSXSXHXdXn 5 2 x s 7 2 s 0 6 z z n U I <.,.I z J s *.fXcXjXL.jXxXhX$X$XG.J.H.G.;XG.K.@.#.$XU.6.] [ q.",
"g.P.aXp. XX.U IXbXfXfXZXAXAXSXSXgXU . 4 z s c d 6 c x z z s n F <.2.1.3.*.F v l.NXvXvXt.hXnXhXxXxX.X;XG.XXMXG.G.u.8.hXU.7.] [ [ ",
"0.$XPXvXaX&.U kXh.gXHXZXHXSXHXJXU 5 5 5 0 , 5 z c Z d s s d c H 1.2.2.g.a.F ;.cXbXt._.t._.nXsXkXkXhX.X8.XX.X-.u.U.L.kXP.;.-.[ | ",
"D.F.U.nXkXs.B s.&.n.JXZXFXHXgXgX: 9 z : z H 9 z c d s > > s D D ' r.r.h.z.*.a.BX).` t.^.).NXbXcXvXaXVXP.hXP.f ] vXsXbX^.] { [ w.",
"D.) _ ( F.K.@.G.P.p.b.FXAXSXFXb.0 : 9 b . 9 9 k 4 p , 8 > 7 C K ' 3.4.v.x.,.z.vX^.d.t.d.(.NXbXdXNX_.kXP./.).q.^.bXvXGX(.;.{ [ | ",
") D.S. .#.@.#.E u.f.=.ZXAXAXHXv.5 ; b N l 9 l b * 3 8 5 7 s Z H L Y L v.v.,.x.bXa.kXs.t.sXdX1.k.bXfXaX9.-.d.d./.e.r.(.d.e.` } k.",
"D.#. .D.) W ) ) o.I.j.fXFXAXZXm.: p p M dXg.p.b , 9 ; 5 6 0 x A L L L 4.Y Y x.bXd.).L.d.vX2.7 1.l.(. X>.~ ^ Q l f a G ` &.^ { | ",
"_ _ _ F._ R R M.o.#.i.z.CXgXx.<.s 1 M ` dXp.n.& k 9 ; : 5 0 n S L Y 4.v.S I x.fXl.l.sXt._.1.D 1.1./.s...~ B B B ^ i t l ^ ^ ' q.",
"_ ( 0.0./ / W %.6.6.7.;.e.e.r.{ p s c F 2.dX2.3 1 3 5 4 4 6 x J 4.L v.L P S v.fXx.y.'.l.'.e.p 1.2.r.p.-.&.X.*.&.N M M M l N ] ` ",
"! (  .6.6.( ~ ^ t.y.q.;.7.e.q.;.p 4 z F :.r.` # 1 4 2 2 6 x x J L 4.,.S S S Y c.(.w.(.k.(.r.> H e.;.` ` &.&.N N l k p l a M ^ m ",
"! ! ! ^ -.>.~ N q.1.1.w.1.2.*.` x 2 z G *.*.b 1 3 2 4 2 6 0 Z K } 4.V V J I L v.w.' (.^.(.l.> b /.l.;.M l M m i t - i a a ` ` m ",
"! ! M m ..-.N ` 1.} } 3.1.1.F n c 3 z F &.` p 4 3 2 2 2 7 7 0 K L L P V I J Y L K K (.l.sX(.2 ' NXbX/.;.l a 1 - l 1 g - a ^ { a ",
"! ] Q h X.X.G :.3.1.} 4.,.2.N N v 4 k M ` H z 4 2 2 < 2 7 7 Z Z L K 7 Z S I *.A Z 1.(.k.(.l.7 r.DXnXcXsX;.d # M a t a a m ! M q ",
"] ( ~ j j X.&.2.2.} 4.} 1.2.B B N 3 z F H H s 2 2 2 < < 7 V V K K 7 P J A S S 8 D 1.(.l.(.w.2 l.vXcXjXvX).e.7.e.e.t.t.7.q.7.! g ",
"6.( T W W X./ ;.[ ] w.| 1.7.T T N p k F U H 4 5 4 7 < 7 7 Z A J K 7 Z A A H b : x ' (.(.(.L d k._.sXcX_.jXcXcXsX).sX).L.t.] f q ",
"6.W R W W T ^ ^ ] { y.[ ;.>.T j B 1 p G ` n < 2 5 < < 7 Z Z S ,.K C c v H U k 9 s Z c.x.k.C K (.d.y.^./.sX_.jX).).).).)._.^.^.^.",
"_ _ R W W T Q ^ ! ] [ [ 7.] T j -.k 1 M *.b , 6 0 < 8 7 7 0 A K D { ` H G &.U 9 k 4 2.fX' 7 w.(.;.] ! ! { 7.^.U.).).).).).^.).'.",
"( ( / T T X.] [ [ q.w.q.q.-...O.j.&.* b F 5 4 z z < < 5 0 A Z 6 D { ` &.N &.&.; 9 z 1.c.D d k.dX7.] f q q ! { f ^ 6.u.L.^.).^.^.",
"f M ^ X.-.:.2.3.w.3.w.4.w.e.9.i.p.:.- k G 5 4 4 b 6 2 4 6 z b p &.:.7.8.~ -.-.= 5 k H ,.2 D a.z.9.9.9.;.7.7.! q y Q ! ! ] 7.R.y.",
"q.p.g.z.z.z.x.x.c.v.v.3.r.a.2.p.p.*.; k H z 4 k x 4 p z 4 3 s N 8.9.9.i.^ -.>.; 3 3 0 z 3 ' e.9.aX.XaXaX`.t.! f y Q m y ! { [ [ ",
"z.dXdXb.b.b.x.x.m.m.c.v.3.<.1.r.g.&.i 3 G N 5 b z 9 b z 4 k n N ^ O...8.X./ -.l 3 * , , p :.e.s.MX X XaXaX7.m q e m Q m ^ ] { { ",
"n.b.x.m.m.m.b.m.c.b.v.h.p.=.1.r.p.b k 9 N H : 5 4 z M k l ` X.j e T T O.../ >.m 3 * 5 5 b 9.:.aXVX XXXf.aXe.m w y j h h ! [ { { ",
"j.5.5.v.v.4.5.<.v.v.h.h.h.p.;.' G - 3 i n H p . . 2 p i a N B ; e E E X.@./ 8.^ ; : 4 9 G 9.-.f.MX;X X9.P.-.m w e h h m ] ] ! C ",
"n b A V V S I I <.5.h.h.p.^ d d p & * 1 k U H , .   @ = # = ; e j O.X.T 8.~ 8.M t : 5 9 &.p.m ..f.f. X XaX-.m t h h B ( -.[ C g ",
"9 z v Z Z S S A I <.*.9 @ a N M @ . * k 3 n &.&.: . .   & $ $ $ % e j h X.i.s.s.i @ v l ;.9.t $ % X.f.p.;.] f y u Q h / s.9.f q ",
"9 9 0 7 7 7 0 5 : : : * ; i d M - . * ; * n =.=.* . @ X $ $ $ $ $ t w % w ^ 9.P.M a l l d.e.y e % B ^ h g ! f t y Q W ~ 8.6.Q y ",
"9 z 0 Z Z Z Z 0 0 9 9 3 1 - g a = @ = ; & i M l & = & $ w w % % % % $ w o + o i m 1 i N aXe.m w o Q f # g M ! y y W T T ( ( Q f ",
"z x A A D A A F n F F b a a > * X % ; t = & @   & $ X $ $ % e % $ % o o o + + O @   - M aXP.7.Q $ ..! m f f Q q u e h T ~ _ Q f ",
"n A H Z b Z D D v k b G D p > # O O r q X $ $ o % $ w w w % % % $ % + % w w w O #   # # -.7.8.Q t -.m f f M ] f u e W W y W y f ",
"0 F F A c x D M M M a p v v 2 . O r u O % $ $ $ $ $ w w % e % % + X % % o o + + = X q   r m ^ Q r ~ m q g f Q y u e h j e e W Q ",
": 9 0 z s p a > a i i * 4 v x > X r t u w $ o o $ $ w e $ % % %   X X % o o w t +   t # r m ~ hXP.hXaXP.R.e.! f u y W e e e y ( ",
"9 9 9 * 1 2 a 2 1 i l H H x 7 7   # u O $ $ o $ % $ $ $ % %   % & X   % $ o + o q = # O q r h KXPXPXKXKXPXnX7.y u y h h e e h Q ",
"9 n n 4 1 > - a g ; * 4 v *.Z < 1 # = r O X X $ % & % % t l B 9 . .   $ $ o X + + = + q r r y MXKXNXnXKXmXKXhXQ o y y e e u u T ",
"n N N M G ` ` &.` N b 9 6 J S V 4 = & = X X $ $ + %   ; B =.U n k ;   @ = % = r + q   O O u u hXxXnXnXKXnXnXmXU.f y Q y e e e Q ",
"; 9 5 p ` :.<.=.=.;.*.U 0 S I Z z 1 * & # O O X X % X & n j.U H =.n *     + + + + = O X O r w aXkXvXnXKXNXnXKXnXt.Q Q t o h y W ",
"& & & 1 n ;.j.U =.=.2.2.A Z Y K A , . & X & $ X + ; X . 9 =.F <.I =.*.M X = r =   O #   q t u hXnXkXkXNXKXnXnXnXjX] m u u h e Q ",
"= = * ; 9 U j.=.5.I <.5.H V Y L A 5 . & X $ w % + & & % & =.U 2.I I *.F ` P.s.^ =   =   O w w aXnXkXjXnXKXKXmXmXKXL.! o r t y Q ",
"- = - - 9 n =.5.j.=.<.5.I V L L n 5 . X @ $ $ w % % % & * =.*.*.J I a.*.N g.fXkX` X = O O O w aXnXxXnXvXmXKXNXNXmXmX7.q q u h u ",
"i = ; l 9 n =.5.=.5.=.5.,.V L J A 3 X @ X % % % % % % & ; &.=.H <.I <.*.N p.dXBXg.O # # O O t xXmXvXnXxXxXNXnXNXvXmX).] t f h y ",
"t X & t 5 9 U =.=.5.<.<.,.V L J n 9 . X X o w % w % $ = = N 2.H Y V <.a.:.:.dXMXsX@   @ # O m xXnXjXkXjXmXKXNXNXmXcXNXL.! Q Q ^ "
};
