/* XPM */
static char *_8573aaa15b64d1dee9eaa7cc89cb42eQAuJIpLtWjJW3o4f[] = {
/* columns rows colors chars-per-pixel */
"64 64 256 2 ",
"   c #040908",
".  c #06160C",
"X  c #0B1C14",
"o  c #081815",
"O  c #151A17",
"+  c #0C0D11",
"@  c #241917",
"#  c #0C2216",
"$  c #13221A",
"%  c #18261C",
"&  c #07200D",
"*  c #2A271C",
"=  c #161823",
"-  c #241C22",
";  c #192723",
":  c #183624",
">  c #152932",
",  c #252728",
"<  c #372929",
"1  c #293537",
"2  c #383737",
"3  c #303030",
"4  c #5C3629",
"5  c #593C34",
"6  c #49322D",
"7  c #66392B",
"8  c #673C35",
"9  c #6D3436",
"0  c #48281E",
"q  c #334134",
"w  c #1A413E",
"e  c #5B443A",
"r  c #4F4232",
"t  c #63453D",
"y  c #6A4537",
"u  c #76483A",
"i  c #6D4C38",
"p  c #2B3844",
"a  c #483C46",
"s  c #58384F",
"d  c #703F54",
"f  c #19514E",
"g  c #364448",
"h  c #335355",
"j  c #27625C",
"k  c #386969",
"l  c #346F6F",
"z  c #2A4D60",
"x  c #454C54",
"c  c #495659",
"v  c #585857",
"b  c #524D4A",
"n  c #654B42",
"m  c #6B4D44",
"M  c #674746",
"N  c #784B45",
"B  c #6B5449",
"V  c #795448",
"C  c #6C5A54",
"Z  c #735C52",
"A  c #7B5C56",
"S  c #6E4758",
"D  c #586858",
"F  c #556F53",
"G  c #65685B",
"H  c #786559",
"J  c #68755A",
"K  c #707559",
"L  c #585D66",
"P  c #4B5B63",
"I  c #695966",
"U  c #765968",
"Y  c #6F546B",
"T  c #48696A",
"R  c #596768",
"E  c #577569",
"W  c #477476",
"Q  c #587577",
"!  c #516B72",
"~  c #676965",
"^  c #776768",
"/  c #6A7469",
"(  c #76766A",
")  c #686976",
"_  c #766A77",
"`  c #687778",
"'  c #787A76",
"]  c #814D3F",
"[  c #942E57",
"{  c #B43B75",
"}  c #AA396F",
"|  c #855648",
" . c #855B54",
".. c #844E44",
"X. c #876558",
"o. c #946B5A",
"O. c #865A6A",
"+. c #95526E",
"@. c #AB4A77",
"#. c #B5477B",
"$. c #A85678",
"%. c #B5557D",
"&. c #A7466C",
"*. c #886C65",
"=. c #877669",
"-. c #967668",
";. c #866678",
":. c #9B667A",
">. c #887C76",
",. c #957777",
"<. c #946B65",
"1. c #A46D78",
"2. c #C0437D",
"3. c #C13F7B",
"4. c #688158",
"5. c #75876B",
"6. c #688478",
"7. c #7A8377",
"8. c #708E71",
"9. c #5E927C",
"0. c #84857B",
"q. c #8B8B7D",
"w. c #878577",
"e. c #96887B",
"r. c #86967A",
"t. c #948D72",
"y. c #A48879",
"u. c #A7927F",
"i. c #5A7D82",
"p. c #6A7982",
"a. c #787986",
"s. c #776B83",
"d. c #B84983",
"f. c #B75787",
"g. c #BB5995",
"h. c #AD5184",
"j. c #877986",
"k. c #9A7888",
"l. c #987894",
"z. c #8F6F89",
"x. c #A86986",
"c. c #B56689",
"v. c #A57789",
"b. c #BB6895",
"n. c #A87896",
"m. c #B67798",
"M. c #AF6E91",
"N. c #B07BA5",
"B. c #9E79A4",
"V. c #C25989",
"C. c #C4528E",
"Z. c #C36896",
"A. c #C5789B",
"S. c #C2648D",
"D. c #C671A2",
"F. c #BA3F80",
"G. c #598D8B",
"H. c #6A8789",
"J. c #788687",
"K. c #7A9697",
"L. c #799191",
"P. c #77A694",
"I. c #7B9CA4",
"U. c #7CA4A7",
"Y. c #77CBDF",
"T. c #7BBDD7",
"R. c #8C8D83",
"E. c #888A86",
"W. c #928E82",
"Q. c #978C88",
"!. c #8E9284",
"~. c #88938A",
"^. c #939385",
"/. c #93948B",
"(. c #9B958B",
"). c #949A8A",
"_. c #9C9B8D",
"`. c #9A9385",
"'. c #878A93",
"]. c #98899A",
"[. c #899896",
"{. c #999995",
"}. c #A58988",
"|. c #A49C8C",
" X c #A79788",
".X c #A68897",
"XX c #B78499",
"oX c #A59A94",
"OX c #B69390",
"+X c #99A397",
"@X c #91A290",
"#X c #A4A28E",
"$X c #A4A294",
"%X c #A9A69A",
"&X c #B7A89A",
"*X c #AFB49C",
"=X c #9195A6",
"-X c #B989A8",
";X c #AF92AD",
":X c #88A6A8",
">X c #97A8A9",
",X c #92B3B4",
"<X c #A8AAA5",
"1X c #B5ACA5",
"2X c #ADB3A8",
"3X c #B4B4AB",
"4X c #B6B6A9",
"5X c #A8B8B7",
"6X c #BABBB5",
"7X c #B4A9B7",
"8X c #C3879F",
"9X c #C786A4",
"0X c #C995B0",
"qX c #C5B8A9",
"wX c #C8B5B6",
"eX c #C9AD9B",
"rX c #BBC2B8",
"tX c #AFC0B5",
"yX c #8BC4B9",
"uX c #C7C6B9",
"iX c #D3CCB6",
"pX c #E7D1BB",
"aX c #BA9AC3",
"sX c #8EB8C9",
"dX c #ABB0CB",
"fX c #A9BFEE",
"gX c #C694CB",
"hX c #CDB7C5",
"jX c #EDB6C9",
"kX c #96C4D9",
"lX c #92C5CF",
"zX c #B8C5C6",
"xX c #ADCBD4",
"cX c #91C8E6",
"vX c #AED0E7",
"bX c #C9C9C4",
"nX c #D4C9C5",
"mX c #D6D6CA",
"MX c #D9D9D7",
"NX c #CED0D2",
"BX c #E6DCD8",
"VX c #E9CCD5",
"CX c #DBE6DB",
"ZX c #E6E6D9",
"AX c #F4ECD7",
"SX c #CDDCE4",
"DX c #EFD9E6",
"FX c #D8E6E5",
"GX c #DBF0EB",
"HX c #E8E8E4",
"JX c #F8E8E9",
"KX c #EBF4E7",
"LX c #F8F8EA",
"PX c #FFEBF5",
"IX c #FEF8F7",
"UX c #EDF0F2",
/* pixels */
"cXcXsX:X>Xw.*.w.~.P.9.F / ( K ' :XtX,X@Xr.8.4.*XmXAXLXKXuX8.8.8.r.tX,X,XlXlXcXkXaXaXN.-X9XD.A.0XA.N.0X0XDXIXBXHXHXFXCXKXHXHXPXVX",
"cXkXsXI.[.~.>.w.r.8.8.E J / ( 5.K.dXtX@X5.r.iXAXLXLXLXAXAXAX*X4.@XyX,XlXkXcXcXcXaX-XD.D.A.m.A.9XD.m.9X0XDXPXBXHXHXHXCXKXFXUXJXbX",
"kXkXsXU.[.'.w.' 8.8.8.4.G J ( 7.H.,X>XL.@XiXKXAXAXAXiXuXiXAXuXt.@X>XyXxXcXcXcXxXdX0X-X9XA.Z.Z.A.D.m.9X-XVXPXHXHXHXHXCXFXFXUXHXdX",
"sXlXlXU.[.L.j.' 5.r.8.8.J K ( ' p.,X:X[.CXAXZXqXqXqXOXt.u.eXAXpX@X>XvXxXvXvXvXvXaX9X9X9X9XZ.f.f.b.D.0X-X0XDXJXDXHXCXFXCXHXUXMX<X",
"+X,XyXlX,XP.a.0.4.r.r.5.J ( ( ' Q :X2XzXKXmXqX%XeX Xe.6 =.-.iXLXtXzXvXvXvXvXvXvX7XD.9X9XA.V.d.d.%.A.0Xc.v.wXVXJXHXHXHXSXFXGXNX=X",
"@X@XyXlXyXH.J.J.5.5.r.8.4.K ( / / 7.bXKXmX6X1X`.( H *.  ( b ~ BXGXNXvXSXvXvXkXvX;X-Xm.A.A.V.d.d.%.A.A.M.1.m.wXJXDXHXHXMXSXSX5XK.",
"r.8.P.yXyXU.L.' 5.( 5.8.J J K K K K rXAX4X*X^.( b b D o ~ 1 x >XGXFXxXxXxXdX,X5X1XXXXX8XS.V.F.d.%.S.c.c.$.1.v.hXMXFXHXSXSXSX,XL.",
"/ c E P.yXU.P.` ( J / 5.J F J G K 4.*XuXr.t.K ~ x x 1 > ! > i.T tXFXzX>X=X:X=XJ.-X8X8X9XZ.#.F.F.@.S.$.&.&.+.*.}.MXMXDXMXSXSX,XI.",
"R c F 9.P.:X~.6.~ ( 7.E D F F J J t.iXu.4.t.v . , L c p p Q i.p +XCXrX~.E.L.H.a.;X8X8X8Xb.g.g.C.#.&.+.[ [ +.O.~ ;XNXDXUXSXvXxXK.",
"K.G.E 9.9.9.8.6./ ) / ~ D F J J K t.uXr.G D ~ 3 3 c ~ ) I ) a.x 7.KX$X8.J.6.H.>X0X9X8X8Xb.g.Z.Z.f.$.&.[ [ &.U S ' dXVXMXSXSXxX:X",
"sXU.L.H.8.8.4.6./ G R R F F 6.J / r.6XE.2 3 G 6 2 < 6 a b a M 6 K AX).6.[.K.I.dX0XA.A.c.h.g.D.D.V.#.&.[ [ @.;.I L '.hXVXSXSXSX,X",
"lXsX>X+X@X8.J 4./ D L R k 6.L.E G <X6Xv + - a - - 5 A =.1.<.*.m 6 uX+X6.,XsXlXdXgXm.c.%.F.F.g.C.%.#.} [ [ @.z.I ~ _ -XgXNXSXFXdX",
"cXcXsXdX6X`.J F F F v D E :X,XQ G rX<X2   p < , b A *.=.<.y.}.OXr +XxX>XsXsXsXdXgXA.h.d.d.{ d.h.V.%.#.[ [ #.;.I ) ) l.-XhXNXSXdX",
"Y.sXdXaX7X(.J F 4.F b D Q ,XxXG.E 4X~., = a 3 a v M M ^ <.,. .O.G ) ,XsXcXcXT.fXgXZ.F.F.d.{ #.#.%.2.%.&.[ @.z.) P ) XXn.aXbXSXNX",
"Y.Y.dXaX;X.X4.4.4.F F F i.,XvXI.E *X7.% p 2 2 1 * O @ 6 C U 6 < 2 = z T.Y.Y.cXfXgXg.F.F.F.{ #.#.%.#.%.@.{ @.z.p.c ) m.M.7XhXhXhX",
"Y.sXdXaX;X&Xu.4.4.4.F E ! K.cXsXD %Xw.* a = 3   O . * $ 2 a - + , = w cXcXcXcXfXgXC.F.C.F.{ C.V.V.%.V.%.{ @._ p.P L l.n.hXdX7XhX",
"dXdXaXaXaX;X].=X/ / 4.F E G.U.dX! <XE.2 % * q O @ O @ O + + O - 1   z xXsXkXsX;XN.d.3.3.{ @.g.b.c.c.c.V.d.$._ ` T ~ z.l.aXwXOXeX",
";X;XB.B.B.B.B.].E.6.6.E E 6.[.dX` ].oX, 6 < e * + @ . @ 3 C @ O , + ) dXdXsXaXB.b.h.{ C.{ F.g.g.x.%.f.d.d.$._ ` L ) s.z.aXhX}.1.",
"].]..XN.N.N.n.l.E.0.7./ ` ' '.=Xj.j.oX0 Z t n r @ @ @ + 2 ' < @ @ - j.].=X].B.x.M.h.h.g.{ } d.g.c.$.f.d.C.@.;.H.R ) s.l.7XhXy.X.",
"a.].;X;XaXN.n.l.k.>.0.' ' j.j.l.l.k.*.M <.V t B @ < 0 + 5 ( 5 @ @ a l.z.B.l.B.M.M.g.g.g.d.h.h.h.c.%.#.#.#.@.' 6.R R s.a.;XnX}.X.",
"' Q.;X-XN.D.N.N.v.k.,.>.>.k.l.l.k.v.d N <. .u N 4 0 0 6 M *.*.0 s ,.k.x.M.x.M.M.M.M.m.D.D.d.F.F.f.%.2.#.{ &.( J.R L ) a.].bXoXH ",
"( q..X;X-XN.m.N.XX}.k.,.,.k.].v.v.1.[ 4 | ....u u 9 5 M 5 A <...+.OX:.M.m.c.M.m.N.M.m.N.b.h.{ F.S.%.%.{ [ &._ J.E R ) s.J.6X|.X.",
"~ ( j..X;X-Xn.N.XX.Xk.,.,.k.}.v.k.1.+.4 9 ] ..[ u  .V V 0 u o.-.-.OX1.v.x.M.M.m.M.n.m.N.N.d.F.C.S.%.2.{ } [ ^ J.` R R p.` 6X|.^ ",
"F v D >..Xn.l.n.n.v.k.,.k.k.k.k.Q.e.-.y 9 u u ..N | X.u u V o.-.-.OXOX:.x.M.x.n.l.N.n.M.g.g.d.Z.V.%.%.&.} +./ 6.` c ! p.` 6X X*.",
": : q r ^ _ U Y O.O.;.Y U ^ ^ U C H H Z i 7 ] ] | | | i u | o.o.-. X}.}.,.;.O.;.z..Xn.m.m.f.g.g.b.f.@.C.d.+.~ 6.` D L ` L.<X}.*.",
": : : q q g 2 2 a < 2 6 2 < 0 3 g 3 < 5 H y i u u | | u ..o.o.o.-.wXAXwXv 2 b a U v.m.m.m.g.g.Z.f.f.f.Z.f.:.~ / 6.R ! i.J.=X(.<.",
": : : : 1 , ; , - - - = - - O $ $ : : * Z i i u | u i y 7 7 u u o.iXLXiX' ; - a C n.m.c.Z.b.b.b.f.%.b.b.f.:.~ ` J.E ! p.H.[.}.,.",
": : : : : ; $ ; O = - = O % ; $ # : * * K B V i u u i y 7 ]  .o.o.pXLXLXFX7.1 , U ,.XXm.m.Z.b.g.Z.%.b.b.h.x.~ ` ~.` ! ! ` '. X,.",
"# > # # ; # & # X O $ O X $ O # % % % e *XX.7 u u V V  . . .<.-.-.pXAXLXKXUXzX' U :.m.A.Z.f.g.Z.Z.#.f.b.f.x.L E '.H.! ! W J..X,.",
"> $ = o : % & # X X O O O $ $ # # q R.iXeXi 8 u u u N N N  . .X.o.pXAXAXKXIXFX2XOXv.:.c.c.f.Z.Z.V.{ @.g.g.M.I E L.H.W k k Q {.>.",
"= = + o # # & & . X X X X o X o % ~.LXLXt.y ] 7 u u N N  . .<.<.o.eXiXpXZXKXIXIXVXwXm.1.%.%.f.d.F.{ } h.g.x.~ D J.` k l k W /.>.",
"= + + o # # . & & # $ X X ; # X 1 mXKXqX,.o.7 7 8 8 9 V  . . . .| -.eXVXBXCXIXJXIXJXVX0Xc.&.@.@.} F.} F.d.x._ v H.W j W W T ~.Q.",
"O o . o o # X & & . % # . % %   0.ZXZX&Xt.A i 7 7 4 7 u | X.| X.| -.OXeXiXmXZXLXIXLXIXIXVX0X:.&.#.} { { &.$.k.L R T i.i.! Q J.[.",
"X o o o X & o X . X & % . * . ' ZXJXuXoXu.X.y 7 7 4 4 7 i i i V | y.eXeXiXiXuXmXKXLXIXJXPXPX0X&.@.#.} } @.c.l.) T W i.G.p.` J.L.",
"o o o o X X X X X . $ O . O D KXLXZXwX Xy.o.7 y 7 7 7 7 7 7 i | y X.u.eX4XmXmXmXmXIXIXJXPXPXDX9X#.&.{ } #.M..X) T W i.G.H.J.J.[.",
"X o # o o & X X . O . X v _.LXZXiXuXqX Xt.*.y y 7 7 7 7 7 y u | 7 u u.&X*XuXiXiXmXLXLXJXJXJXPXDXS.%.#.%.$.x..X' T k l G.U.L.E.{.",
"o o o o X X # $ % # % +XZXHXHXCXuX1X%X Xt.o.i 7 7 7 u 7 u ..| | e V u.&X*XiXuXuXmXCXBXLXJXJXPXPXjX%.$.%.$.1.-X' T j l G.,XP.'.{.",
"o o X & X X # O . % 0.mXZXHXMXbXuX%X#X#Xu.o.u 7 7 7 u ] ] | ] u 0 e -.#X*XiXuXiXnXmXnXMXAXHXJXJXJX9X+.$.:.1.XXE.! k l G.U.:X/.].",
". o o o o X X $ % % 3XmXCXZXZXmX*X#X#X&Xu.t.| 7 7 7 u ] ....u u 0 5 =. X#XqXuXuXiXbXmXnXbXmXCXZXIXjXx.+.1.1.m..Xa.! l G.P.:X=XoX",
"o o X o o o $ O $ {.KXKXZXLXmX4X&X*X#X#Xt.y.y.7 ] 7 ] u u ....u 0 6 *.&X&X4XqXuXuXuXZXmXiXbXuXmXJXJXOX<.1.1.c.-X].p.k l l K.<X].",
". o o o o . ; X / FXLXHXKXmXuX%X1X#X#Xu.u.u.t.i 4 i ] | ] | ] u < e t.$X&XqXqXuXuXuXbXuXrXrXuXiXBXLXnX<.O.o.m.XX-Xs.z T k Q <X<X",
"o o o o = o . ; <XHXmXbXbXuXuX$X*X#X#X_.u.#Xu.V y y u | ] ] N y e i >.|.#X1X4X4XqXuXuXrXtX4X*XtXbXPXBX.X .+.A.m.-Xl.p.p.! Q [.].",
"o . o   . ; + ~ MXZXwX6XrX6X4X+X+X_.#X#Xu.u.u.t.i y u  .u u ..y e B =.`.oX1X4X4X*XuXrX4X2X2X4XtX6XBXAXnXv.O.M.m.-X.Xj.a.p.` L.[.",
"= o o o o O 1 2XCXNX6X6X4X2X*X_._.#X#X#Xu.#Xu.y.Z i V  .i i V i e e *.e.|.&X&X4X4X4XrXtXtX4XrXrXbXuXBXJXoX;.k.N.;X;Xs.s.a.p.[.@X",
"+ + o X O   x 6XbX2X<X2X<X_.).!.).#X#X#X#X#Xu.u.<.i V X.N M N B e e =.e. X$X%X2X1X4X4XrX4X4X6XwXbXbXMXMX/.^ a.j.B.;Xs.Y ) ' [.>X",
"o   o , 3 = a.uX6X%X/./.+X).).).r.@X_.#X#X#Xu.&Xt.X.H X.B N V N e B =.e.(.|.%X4X2X4X4XtX4X4X3X6XwXuXnXmX~.v c R s.B.s.Y S L ~.+X",
"h 1 ; L / 0.bXrX3X{.!.!.).).)._._.#X#X#X#Xu.#XOX}.*.A X. .Z V m t B w.u.|.#X$X*X*X2X2X4X3X3X6X3X1XwXnXNX>Xh w z z ) Y Y s a ' @X",
"a.g g '.{.dXbX/.{././.!.!.!.r.+X$X+X_.#X#X#Xu.&X X=.H A X.A B n i B t. X|.|.^.).*X<X2X2X3X3X3X6XqXnXnXdX>XT f f p z s x a a ` +X",
"L x P E.MXbX[./.~././.~.R.R.^.).@X+X_._._.#X$XOXe.=.X.H *.A 8 m t Z >. X|._.).^.%X<X1X4X1X2X1X4X1XwXMXbX>Xh f f f f f f 2 1 ` +X",
"p > g a.2X<X/././.~.'./././.^.).).@X@X_._.$X$XoXe.=.Z B A Z 8 M t m *.e.(._._.).%X%X*X1X1X2X3X4X1X3XbXzX>XE h j j j j j h q R <X",
"p + o E.6X{.0.' /.Q./.{.).^.!.!.).).).)._.$X$X|.( C m B A V M B m t Z t.(._._._.$X$X%X%X%X2X1X2X1X3X6X2X[.! k z j W k c x 1 ~ <X",
"L.g + a.<X~.' 7./.'./././.^.!.).).).).)._.$X$XoXH C Z Z Z B t V m e B w._._._._.oX$XoX%X&X<X<X<X1X3XuX>X6.h g g h c b x b v R.wX",
"=XL.x ` +XE.( 7././.E./././.^.).).)./.(.(.oX$X Xe.H H Z m n t B m e B w._.`.`.)._._.oX$X%X<X<X%XoX1XzX3Xp.c g x v I I U b =.1XwX",
"p.a.) J.+X0.~ ' /.R.E.E.!.R.r.!.^.`.^.^.(._._. X X( H Z Z Z n n n e B w.(.^.).).).(.oX_.oX%X+X%X%X<X3X<X/ R I Y z.z.O.O.U .XhX6X",
"p.p.p.J.~.( / ' E.' 7.E.R.q.R.q.^.^.^.^.`._.|.(.Q.H Z H H X.B t t e Z w.`.^.!.^.W.(.(._.{._.oX+X<X<X<X%X~ v U ;.v.x.S +.}.wXnXmX",
"a.'.7X'.E.' ( / ' ' ' E.!.^.^.).q.W.q.!.^.(.(. X`.H H Z C Z B m t t H =.q.q.^.^.q.^.(._._.^._.{.{.%X3X7X_ S U :.x.v.S k.hXVX6X6X",
"5XdX5X[.' / ( ~ ' ' E.E.R.W.q.q.q.W.W.W.W.`.(.`.`.( H m Z n t t e e Z w.t.q.q.!.w./.oX^._./.0._.<X{.1XoXO.S +.z.k.O.;.1XhXbX6X6X",
"=X[.'.E.7.( ~ ~ ~ _ 0.E.E.R.!.q.q.q.q.q.q.Q.`.(.`.=.H C Z B m n t e Z w.q.q.q.!.W.`.oX`.Q.R.7./.+X{.<X}.U S +.O.k.z..XdXbXzXrX5X",
"P x c R ' ( G G v ~ w.q.E.q.q.r.q.q.w.w.q.W.^.^.W.>.H Z B m M t t t B =.w.w.q.!.W./.|.^.q.' ( /.{.{.oX.Xd d O.+.v.oXdXzXzXtX5X>X",
"L x c ~ ' ) G D v ~ 7.E.0.q.0.q.q.q.w.w.w.q.W.e.e.=.H H n n 5 5 t e B =.w.w.w.0.q.R.`.(.0.( ( /.{.+X.X.Xd d O.;..X;X<X>X:X>X:XK.",
"p.i.) ) / ~ G v G ) 0.0.E.0.r.q.q.w.5.( 5.q.q.q.q.w.H A n m 8 8 e e B =.w.w.w.w.w.q.`.(.w.~ ' /.{.{.Q..XM S U z.].j.s.p.H.H.K.G.",
"a.a.a./ D ~ ~ v ~ ( E.E.0.0.0.0.w.7.( ( ( q.q.q.w.>.H Z n M 8 t e e B =.w.w.w.w.w.q.Q./.' G w.R.{.{.Q.oXI S _ l.j.s.s.i.` Q i.G.",
"L.'.J.) ~ G D v ~ ( ' E.0.w.q.7.w.( ( / ( 7.t.q.w.=.H B t 5 8 y e 5 B ( w.w.w.0.0.q.W.W.( G q.W..X(.'.{.( v s.s._ Y ) s.! ! Q i.",
"L R R R ~ ~ G v ~ ( ' 0.7.w.w.5.w.( G G K ( w.w.w.( *.m t 5 8 5 5 4 n H ( ( w.r.>.q.e.q.~ H R.Q.(.Q.j.{.a.v a.) Y ) s.Y L T ! W "
};
