/* XPM */
static char *ea0c2abf2eaf44f4f60e1fe7d32c06a7bHiELBdQBw00lkWi[] = {
/* columns rows colors chars-per-pixel */
"64 64 250 2 ",
"   c #181519",
".  c #2F181C",
"X  c #0E182D",
"o  c #32182E",
"O  c #222425",
"+  c #24262A",
"@  c #2A272A",
"#  c #26282B",
"$  c #2B2C2E",
"%  c #3C2624",
"&  c #35292B",
"*  c #2F302E",
"=  c #30302F",
"-  c #2A2C31",
";  c #282B3A",
":  c #2D3136",
">  c #333433",
",  c #353639",
"<  c #383839",
"1  c #3B3C3C",
"2  c #501E1A",
"3  c #471928",
"4  c #560D35",
"5  c #491B35",
"6  c #5A1637",
"7  c #6E192D",
"8  c #661836",
"9  c #76163C",
"0  c #492726",
"q  c #562928",
"w  c #4A342A",
"e  c #58362C",
"r  c #492632",
"t  c #592A36",
"y  c #463939",
"u  c #573A36",
"i  c #662F2F",
"p  c #68283C",
"a  c #742938",
"s  c #673836",
"d  c #3D443B",
"f  c #524F30",
"g  c #5B4438",
"h  c #65463A",
"j  c #6A493B",
"k  c #734C3D",
"l  c #65563E",
"z  c #77503F",
"x  c #5E6633",
"c  c #656C30",
"v  c #1F3453",
"b  c #263847",
"n  c #3B3D43",
"m  c #2C3356",
"M  c #681546",
"N  c #781749",
"B  c #6C1E53",
"V  c #751854",
"C  c #572844",
"Z  c #4C344D",
"A  c #593A46",
"S  c #762A44",
"D  c #793846",
"F  c #6C3152",
"G  c #523566",
"H  c #70346B",
"J  c #3E4244",
"K  c #384B48",
"L  c #2E4A51",
"P  c #374858",
"I  c #294A6E",
"U  c #3E4966",
"Y  c #395368",
"T  c #335773",
"R  c #2F647B",
"E  c #434444",
"W  c #474547",
"Q  c #494947",
"!  c #45494C",
"~  c #4C4D4B",
"^  c #574948",
"/  c #4E514B",
"(  c #51524E",
")  c #59544A",
"_  c #4D4C52",
"`  c #574A52",
"'  c #4D5154",
"]  c #545553",
"[  c #575856",
"{  c #595956",
"}  c #575759",
"|  c #5C5D5B",
" . c #674846",
".. c #6B4D44",
"X. c #734B48",
"o. c #6D5447",
"O. c #745244",
"+. c #7C5445",
"@. c #75544B",
"#. c #7A564B",
"$. c #745B4C",
"%. c #7B5B4C",
"&. c #664D54",
"*. c #734A56",
"=. c #685856",
"-. c #625E5C",
";. c #775C54",
":. c #7C5B53",
">. c #5E6448",
",. c #57615C",
"<. c #5F605D",
"1. c #70724A",
"2. c #61615E",
"3. c #6B635D",
"4. c #7D6254",
"5. c #7B6857",
"6. c #5B4C64",
"7. c #575865",
"8. c #5C5D61",
"9. c #4D4F71",
"0. c #46577A",
"q. c #69526C",
"w. c #5E6162",
"e. c #4D6B77",
"r. c #646462",
"t. c #6B6663",
"y. c #676865",
"u. c #696966",
"i. c #64676B",
"p. c #6C6D6B",
"a. c #756A66",
"s. c #627269",
"d. c #6F706D",
"f. c #71716E",
"g. c #7B746A",
"h. c #696B75",
"j. c #6D7372",
"k. c #747572",
"l. c #797674",
"z. c #767876",
"x. c #787976",
"c. c #797976",
"v. c #76767A",
"b. c #7C7C7A",
"n. c #972B3A",
"m. c #872D4F",
"M. c #953949",
"N. c #952557",
"B. c #873955",
"V. c #A03257",
"C. c #8E3566",
"Z. c #8D444F",
"A. c #825C4B",
"S. c #855C49",
"D. c #835C53",
"F. c #855859",
"G. c #955A58",
"H. c #AA4D53",
"J. c #8A634E",
"K. c #856354",
"L. c #8B6454",
"P. c #846659",
"I. c #8D6659",
"U. c #85695B",
"Y. c #8B6B5C",
"T. c #926956",
"R. c #946D5A",
"E. c #887659",
"W. c #96715E",
"Q. c #A87C5A",
"!. c #955069",
"~. c #A8556A",
"^. c #816965",
"/. c #8C6E61",
"(. c #936B64",
"). c #8C7164",
"_. c #85756D",
"`. c #957767",
"'. c #9A7464",
"]. c #9B736B",
"[. c #9C7C6C",
"{. c #816376",
"}. c #837D79",
"|. c #987C75",
" X c #AE6E6C",
".X c #7F8454",
"XX c #7F8570",
"oX c #7F807E",
"OX c #7E977C",
"+X c #8A9559",
"@X c #B7B05C",
"#X c #92916A",
"$X c #81817E",
"%X c #8D887C",
"&X c #9A8474",
"*X c #AB926F",
"=X c #A58578",
"-X c #A98B7C",
";X c #97A56A",
":X c #A2AC72",
">X c #ABB67C",
",X c #C7C975",
"<X c #2B5788",
"1X c #395884",
"2X c #34698B",
"3X c #316E92",
"4X c #3A78A6",
"5X c #545781",
"6X c #6E4F83",
"7X c #4A748B",
"8X c #517090",
"9X c #636781",
"0X c #777C81",
"qX c #926F89",
"wX c #AB6787",
"eX c #3C85B0",
"rX c #4F859B",
"tX c #789188",
"yX c #4F92A2",
"uX c #7089A9",
"iX c #579EC1",
"pX c #58A6C6",
"aX c #68ABC7",
"sX c #848582",
"dX c #868587",
"fX c #878986",
"gX c #898986",
"hX c #8C8D8A",
"jX c #958D82",
"kX c #85908F",
"lX c #8F918E",
"zX c #9B9687",
"xX c #91918E",
"cX c #898F95",
"vX c #949592",
"bX c #969895",
"nX c #999997",
"mX c #9A9B99",
"MX c #A78E81",
"NX c #AD9284",
"BX c #AC968A",
"VX c #AE908E",
"CX c #B2988A",
"ZX c #B7A68F",
"AX c #AEB785",
"SX c #B5BD8B",
"DX c #C1A89C",
"FX c #C6AFA4",
"GX c #B7C08F",
"HX c #93B6C7",
/* pixels */
"{ | | | ,.<.<.<.<.2.r.r.r.r.r.r.r.r.r.r.r.<.<.<.<.| | { [ { [ ] ] [ [ { | 2.<.<.<.<.<.2.<.2.2.2.2.2.<.<.<.| | | { { { [ [ ] ] ( ",
"p.i.i.p.d.d.p.d.k.j.k.j.k.k.k.s.p.y.i.y.r.r.2.<.| <.| | { { <.u.3.3.2.,.| | | | <.| | 2.2.| <.<.{ | { | <.{ [ [ [ ) [ ] ) ] ] ( ",
"p.p.d.d.d.j.j.j.k.j.z.z.x.x.p.| 2.<.| | { { { [ { { { [ ( ) a._.1.3.,.' { { | | <.<.| 2.2.| | { [ <.2.2.( ] ] ( ] ( ( / / / / / ",
"j.d.j.j.k.k.k.j.k.XXz.b.b.b.b.b.b.b.z.x.z.z.z.k.k.j.k.p.p.x.#Xg.1.e.<XP 3.d.f.d.f.f.f.f.f.f.f.d.d.f.p.f.p.d.d.u.u.u.u.y.y.y.r.r.",
"j.j.j.v.j.z.z.z.z.b.b.b.oXb.f.<.w.| | { [ [ [ [ { ] { | }.jXgXe.4X4X3XZ u { { { ] { ] ] ] ] { ] ) ] u.2./ / / / / Q / Q Q / Q Q ",
"j.j.j.v.z.z.z.z.b.b.b.b.oXtX}.b.b.b.b.b.b.b.x.x.z.z.k.x.%XzXkX4X4X4X4X*.a f.f.l.x.x.x.l.x.l.z.x.k.z.k.z.k.k.f.d.d.d.p.d.p.p.u.y.",
"k.j.z.z.oXz.z.oXb.oXb.sX}.tX0Xz.j.p.i.p.k.k.p.y.t.p.k.jXzXzXcX4X4X4XeX6.G 9.F X.&.| 2.| | | | | <.<.2.2.) ] ] / / ( ( ( ( ( ) ( ",
"z.v.z.b.z.oXoX[ [ i.] 8.t.b.sXb.z.z.j.k.v.b.k.j.k.j.%XzXMX&XjXC.tXyX9.5X8XC.o o 5 r.f.f.f.f.p.j.p.t.p.u.y.p.u.p.u.y.y.r.r.r.r.w.",
"z.x.b.b.b.b.z.E ] ' J E ~ d.b.d.p.u.y.y.r.r.2.r.<.d.%XzXG.I. X*X>XD.Z.9X6XM   X X L { { ' } } k.$X] Q ~ p.b.2./ ( ( ~ Q Q ~ Q Q ",
"v.x.b.b.$Xb.x.< J | E Q y.oXr.> < < > $ = > > < d w.jX|.n.V.>X,XQ.M.G.H.B .   X m K n E f 1 n p.sXr.] 2.z.b.( > > > * * * * * $ ",
"b.0Xb.b.oXsXx.E E p.Z ( fXgXsX$XsX0XoX}.b.qXoXoXb.x.fXD.N F OX;XM.7.0XN.q %   b p.b.b.x.x.x.b.b.b.p.] u.b.c.x.z.k.k.k.d.f.f.d.d.",
"oXoX}.tXoXsXtX] ] tX/ <.hXhXb.u.t.p.i.i.y.r.w.s.p._.k.U <X4XyX#Xn.q.C.a 0 0 < ] <.| 2.| <.| -.,.{ r.p.r.] { [ ] ) ] ( ) ) / / / ",
"oX}.tX}.sXsXsXsXsXdXdXdXhXhXdX$XsXsXsXsX$X$X$X$Xx._.w.<X3X4XuX@XM.N.S t w % g x.b.b.b.$XoXoX$XoXoXb.b.$XoXXXb.b.x.x.XXx.x.z.k.k.",
"tXb.oXqXsXdXfXfXgXgXhXhXhXhXsXb.z.b.b.z.x.x.k.k.f.g.T <X9.7X:X%XB.m.0 w u % y u.p.u.u.u.y.t.u.t.r.p.u.p.2.2.r.<.2.<.| 2.,.2.2.2.",
"$X$XtX$XfXfXfXkXgXgXhXhXhXhX$Xf.k.k.k.k.k.d.f.f.d.r.I 9.m.9.rX1XM 0 . w ..u  .t.f.f.f.f.f.f.f.f.f.z.b.c.f.f.d.f.p.u.s.p.u.f.d.p.",
"sX$XsXfXfXfXgXgXgXlXhXhXxXxXxXhXhXlXhXhXgXgXsXtXqX` m G V <XT J w 0 % e #.D.%.a.b.b.x.b.x.b.b.x.c.c.f.c.x.x.x.x.g.x.f.k.g.f.f.d.",
"sXsXsXfXfXfXhXgXhXlXhXlXlXxXfXd.s.d.p.i.i.p.p.t.t.A m <Xm Z u e h u  .#.I.].(.;.2.r.r.w.y.2.r.2.2.u.p.p.2.2.2.<.<.<.<.<.<.| | | ",
"sXfXfXfXkXhXhXlXhXhXlXlXhXvXlXkXlXxXxXhXhXhXhXdXhX .m I { o...O.#.D.L.I.(.].].D.}.sXfXfXfXgXgXgXgXgX$XgXfXfX%XsX%X$X$X$X$XXX$Xb.",
"fXfXkXfXkXgXhXlXvXhXxXxXvXxXdXz.k.k.k.a.j.s.p.p.f.` b 9.a.=.4.K.R.]. X[.(.].(.X.2.3.r.r.3.y.y.r.2.p.u.p.<.<.<.<.,.| | | { { { [ ",
"fXfXgXhXhXgXlXlXhXxXxXxXvXvXhXqX$XsXsXtXsXqX}.0X$Xl.m ` 5.;.5.W.'.=XNX(.F. .h u g.$X%X$X$XfXfXgXgXgXhXgX%XgX$XsXsX$X$X$X$X$X$Xb.",
"fXfXlXgXhXlXlXlXvXlXvXvXvXvXlXhXgXgXfXfXfX$XoXb.b.l._  .#.@.$.L.'.=X=XI.^.X.w w t.k.k.f.z.x.b.x.k.c.z.b.f.k.f.f.f.p.y.u.y.r.2.r.",
"kXlXgXkXlXlXlXz.k.oXz.v.dXlXfXj.z.k.k.k.f.f.d.d.p.f.r.*.X.O.j j G.'.(.A.(.(...u a.z.z.z.x.b.b.x.l.b.b.oXc.c.z.l.c.c.k.k.f.k.f.f.",
"gXlXlXlXlXlXlX] } 8.( } { b.vXgXgXhXgXfXsXsXb.b.l.k.t.:.F.D.+.O.A.I.D.X.:.:.;.h 3.f.f.f.k.l.x.gXxXp.<.y.oXxX$Xp.u.y.r.2.2.| | | ",
"gXlXlXlXlXlXlX[ ~ i.E ] i.sXz.d n f d Z 1 1 < < > = =  ./.(.D.+.A.D.O.e .._.=.^ f < 1 < E ~ E b.xX) d | sXxX| > > = = = $ * * * ",
"lXgXlXlXvXlXlXz.' oXQ ~ hXnXhXoX0XqXoXoXb.b.z.k.f.p.u.u j (.G.+.#.D.:.u g w % &.l.$XsXsXfXhXhXvXxXr.] l.vXxXxXgXgXfXsXsXsXsX$X$X",
"lXlXlXlXlXlXbXw.' kX] ] vXnXvXqX0XsXoXoXx.f.p.p.r.r.8.u 0 q s z k A.D.:.X. .*.o.t.u.p.u.u.u.t.p.u.p.f.b.p.k.}.f.t.r.r.r.| 2.-.| ",
"lXlXxXvXlXvXvXkXfXbXkXlXnXnXvXdXsX$XoXoXb.b.z.f.d.u.8.A u u  .o. ...#.:.:.F.X. .g.0XsXsXgXhXhXxXhXxXhXhXhXhXxXhXgXhXfXdXfXhXdXsX",
"lXlXlXvXvXvXvXvXbXbXbXbXnXnXvXxXlXlXkXfXdX$Xb.z.k.p.7.; - , n n < , < 1 Z n n g ] w.r.d.b.b.$Xb.b.}.b.}.c.b.hXl.c.b.k.z.k.p.d.d.",
"lXvXvXlXvXbXvXbXbXbXnXnXnXmXjXf.d.p.k.p.p.i.r.<.| ~ U : # : n J , : : - # - - : : , 1 n y.c.c.b.b.oXoXsXb.b.gXtXb.}.b.b.b.b.v.b.",
"lXvXlXvXvXvXbXbXbXbXnXnXmXnXnXnXnXbXvXxXlXdX$X$Xk.6.T ; J w.h.7.+ O O + + + + + # # - n z.xXxXxXlXxXlXxXxXxXlXgXgXdXgXsXsX$X$Xb.",
"lXlXvXvXvXvXbXbXbXnXnXnXmXmXxXf.d.f.p.p.t.2.-.=.` 1X5X; ! w.w.} O + O + + + # # # # $ 1 <.u.f.f.f.k.c.c.p.p.p.p.p.d.d.p.u.p.u.p.",
"vXvXvXvXbXbXbXbXnXnXnXnXnXnXnXlXhXhXhXgXsXsXb.q.G q.6.+ # # ; # O O + $ # : # - # + - d $XvXxXbXbXnXvXbXnXnXnXvXvXvXxXxXxXxXhXhX",
"vXvXvXvXbXbXbXbXnXmXnXnXmXmXvX$XoXb.XXl.l.k.a.B.m.C.S + O O O O : 1 , } i.h.8.Z # # ; n y.p.p.p.d.f.k.l.p.u.p.t.u.y.2.y.2.2.2.r.",
"vXvXvXbXvXbXbXbXnXnXmXmXmXmXxXb.b.x.b.l.k.a.B.H.~.H.S O O O O @ x.cX} tXh.i.dX] # + - J b.dXgXhXhXxXxXxXxXxXxXxXxXlXlXlXxXhXhXhX",
"vXbXvXvXbXnXnXmXmXmXmXmXmXmXmXvXvXhXhXgXqXF.!.qX XH.p O O O O + ' i.! v.v.7.0X7.+ + - ! z.$XsXb.b.b.fX%X$Xb.b.b.k.k.k.f.f.f.d.p.",
"vXvXbXvXbXbXbXbXvXnXzXnXmXmXxXf.p.p.p.t.#.Z.VXwX XH.t O O O O O O + $ ! i.p.7.! + # # J z.sXsXb.$Xb.$XoXb.b.sX$X}.b.b.b.b.b.x.x.",
"vXbXbXbXbXnXmXi.{ k.] r.p.vXnXvXvXhXhX_.B.~.wX8XcX~.t O Z d > < O @ + + # - - $ + + - J b.oX$XvXnX2.| | gXmXk.( _ ~ Q E E E f n ",
"vXbXbXbXbXbXbX,.] | Q Q r.vXsXE E 1 1 D N.~.wXiXaX{.r @ 0XtXt.}._.^ Q W + E <.} ! ! ; = < , y fXvX( E u.vXmXf.( { | } ] { -.} } ",
"vXbXbXvXbXmXmXx.~ k.( <.vXmXxXf.f.f.-.X.m.V.uXpXpX9Xr + W g.BXDXFXMXCX^.= [ v.dXv.} $ ! oXfXgXbXbXu.2.sXmXnXnXnXnXnXnXvXvXxXlXhX",
"vXbXbXbXnXnXmXp.! dX] k.mXmXbXdXsX%XY.a 2 q uXaXaXh.%   - MXDX-XCXZXNX|._.Z _ _ } ~ $ J d.b.sXz.p.k.b.x.f.k.x.z.d.p.p.p.t.i.r.u.",
"bXbXbXbXbXbXbXlXqXmXlXvXmXmXvXb.x.+XE.2 q i o.aXHXqXA o ^ &X`.I.DXCX`.CXa.= > , , : - ~ fXhXlXhXlXxXxXbXxXbXzXbXvXxXbXxXvXvXvXxX",
"kXbXbXbXbXbXbXmXmXmXmXmXmXmXbXvXxXOXe.2 h k j jXHXqX~.*.X.).P.NXCX-XNX=Xy ; & @ @ - - ] oXoXXX$Xb.$Xb.$Xb.x.b.x.l.l.k.f.f.f.p.p.",
"bXbXbXbXbXbXbXmXmXmXmXmXmXmXlXp.s.7Xb q S.S.+.3.aXh.!.a @.I.-XNX=XZXCXP.7.<Xt &.2.r.t.p.z.z.z.x.l.$X$XsX$XoX$X$X$X$X$XsXsXsXsXsX",
"lXvXlXbXvXbXbXbXmXbXbXbXmXmXvXvX7XP 0 j S.T.L...uXq.N.9 U.|.NX=XMXMX/./.H 2XA g.}.$XsXdXgXgXhXlXhXhXfXhXhXgXgXgXgXfX%XsX$X}.b.x.",
"lXvXvXvXlXvXvXvXbXbXbXbXbXvXlXj.P % e +.T.T.T.k 7.q.N.m.[.-X[.MX-X).`.F.H 2XZ ) | -.r.r.r.t.t.t.u.d.$Xx.p.p.p.p.p.p.d.f.d.f.d.d.",
"lXlXlXvXlXvXlXvXvXvXvXvXvXvXvXi.% q S.S.J.T.Y.O.s m.N.B.-X-X=XMX_.`.|.S N.q.D g.}.$X%XgXgXhXlXxXxXlXgXlXxXxXvXxXxXxXlXlXgXhXgXgX",
"kXlXlXlXlXlXlXvXvXxXvXvXvXlXkX^ 2 j L.J.J.I.I.O.p N.V.B.|.NXNX`.&XMXX.9 V M.S { <.2.r.r.u.r.u.r.3.u.d.g.t.y.t.2.2.2.r.2.r.2.2.2.",
"gXgXgXlXkXlXlXlXlXvXlXvXlXvXz.w e T.R.J.T.'.W.O.a m.C.S R.NXMXMXCX^.8 9 V m.F q.f.k.x.b.oX$XsXgXlXhXhXhXhXhXhXhXxXxXhXhXhXhXhXgX",
"lXlXgXlXhXhXhXhXlXxXxXxXxXlXi.0 +.W.W.T.W.*X[.D.A 9.9.3 j `.NXZX&XA 4 n.B 5X5X&.u.p.f.f.f.x.l.k.f.x.oXz.p.p.f.f.x.k.u.u.r.r.2.2.",
"fXgXkXhXhXhXhXhXdXdXsXb.dXdX9.e J.R.R.T.W.=X|.;.T 3X2Xq u o.[.BX).r 8 N V 1X7X .2.y.u.p.d.f.x.k.k.d.k.d.k.x.b.b.sX$XoXoX$X$XoX$X",
"fXfXfXgXhXhXhXsXQ | ~ E [ 7.Y j J.J.W.R.Q.=X&Xt.2X2XY t h h $.`.U.r 6 9 V 0.8X` 3.3.u.u.u.u.p.sXgX[ ] ) b.xXx.f.p.u.r.2.<.| ] ( ",
"fXfXfXfXgXdXhXz., | E E ] ' P z S.R.&XW.W.[.'.8.R 2XP X.h l o.U.4.y 5 N V 9.9.& $ $ $ * * & , x.sXQ d y.hXhX/ , 1 , > > = > > < ",
"dXsXdXfXfXfXhXr.> p.( > p.h.W z J.`.[.'.[.&X`.T R R P :.o...o.P.;.w 3 9 V G C  .u.d.f.f.l.c.b.sXsXp.f.b.dXdXb.b.b.b.b.x.x.l.k.k.",
"sXsXsXsXsXdXgXj., p.{ , x.h. .k J.`.`.W.[.|.a.T L L } %X#Xl $.5.4.y 3 6 V C 8 C ) ] { { | 2.-.2.r.u.p.p.2.2.-.r.2.2.<.2.2.<.<.2.",
"oX}.sXsXsXsXsXsXx.b.oXp.$X3.j j 4.W.).W.'.Y.{ L X K XXAX>X5.$.$.o.t 3 6 M C 7 &.t.d.f.l.x.x.b.$X$X$X$XsXsXsXsXdXfXsXsX$X$X$X$XoX",
"oXtXsX$XsXsXsXsXsXdX$XfX$XO.h k J.Y.I.Y.U.o.! b L ,.AXSXAX#Xo.o.g 3 3 6 M 6 7  .| 2.2.2.r.r.r.2.2.u.p.u.2.2.-.2.2.| | | | { { ] ",
"oXqX}.tXoXsX}.sXsX$XsX0Xl.h j z K.K.+.$.O.! L Y =.#XSXGXGXAX1.g w 3 3 4 M 6 p ^ { | 2.3.y.u.p.f.f.k.z.l.k.l.x.x.l.x.b.c.b.b.b.c.",
"oXb.b.oXoXsXb.sXoX$XsX}.a.h k z +.#.O.z j K Y 2./.&XSXSXSXSX;Xx w o 3 4 8 M *.=.t.u.p.p.f.f.f.f.f.f.k.f.p.p.p.u.u.t.t.2.2.2.| { ",
"oXz.b.oXb.b.b.b.b.sXb.b.o.h j %.K.P.L.P.P.%.$.U./.).>XAXAX>X:X.Xd + 3 4 8 C 2.W ^ ~ ] { { | | | | r.p.p.r.r.r.u.u.u.p.p.p.p.f.f.",
"z.oXb.b.b.b.b.b.b.b.b.b...j %.L.Y.).)./.Y.P.U.).).E.*X>X:X:X+X1.L b r 8 4 u >.| u.u.f.k.k.x.x.x.b.b.k.b.l.l.l.k.k.f.p.p.p.u.r.r.",
"z.z.oXz.b.b.v.b.x.b.b.g.l O.%.4.P.Y.E./.Y.U.Y.).).P.E.;X;X+Xc f d d f t 4 e ) J Q ( ( ` ] ] { ] } | r.| { { { { { { | | -.-.<.<.",
"z.z.z.z.z.b.x.b.b.b.x.u.g O.$.%.K.U.Y.U.U.U.U.U.5.;.o.+X+X1.f w x c x r 4 q f [ 2.t.u.p.f.k.k.k.l.l.z.b.x.b.l.x.b.l.l.k.k.k.f.f.",
"k.k.j.k.z.z.x.z.x.z.x.=.g h O.$.%.P.P.P.P.5.4.$.o... .l 1.f . % x c d 0 4 q K ! / ( ( { | { [ [ | <.| -.} ] } ] { ] _ ] [ ^ ] ] ",
"k.j.z.z.k.z.z.z.f.d.j.g e g j O.$.4.5.4.:.%.$.j g g g w w 0 . % x x b 5 4 0 b ! ] { -.2.r.2.y.y.y.r.2.u.p.f.f.k.k.k.k.f.p.u.i.r."
};
