/* XPM */
static char *_d2ba9c5cfcd4d028002a79dc90ebe99ovBAQmt8g0S3jzHJ[] = {
/* columns rows colors chars-per-pixel */
"64 64 96 2 ",
"   c #674C37",
".  c #664B38",
"X  c #694E39",
"o  c #6D533C",
"O  c #70563F",
"+  c #705541",
"@  c #755A43",
"#  c #7A5D46",
"$  c #7B5E48",
"%  c #7A6047",
"&  c #7E624B",
"*  c #83654C",
"=  c #86694E",
"-  c #896A4F",
";  c #856750",
":  c #846A51",
">  c #8B6D53",
",  c #906F51",
"<  c #8D7055",
"1  c #8E725A",
"2  c #937256",
"3  c #997657",
"4  c #93755A",
"5  c #99775A",
"6  c #96795D",
"7  c #9B7A5D",
"8  c #A17E5E",
"9  c #967A63",
"0  c #9C7D61",
"q  c #9B7F69",
"w  c #A17E62",
"e  c #A7805F",
"r  c #9E8164",
"t  c #9E836A",
"y  c #A48264",
"u  c #A98565",
"i  c #AD8867",
"p  c #A4856A",
"a  c #A9866A",
"s  c #A6896C",
"d  c #AC8A6C",
"f  c #B18A67",
"g  c #B28D6D",
"h  c #B88F6F",
"j  c #AE906E",
"k  c #B5916F",
"l  c #B9926E",
"z  c #A68770",
"x  c #A68B73",
"c  c #AC8D72",
"v  c #AA8F7A",
"b  c #B28E71",
"n  c #AE9175",
"m  c #AE927B",
"M  c #B49273",
"N  c #BB9574",
"B  c #BD9976",
"V  c #B4957B",
"C  c #BA9679",
"Z  c #B6997D",
"A  c #BD9A7B",
"S  c #C19776",
"D  c #C19976",
"F  c #C19779",
"G  c #C39D7C",
"H  c #C99E7D",
"J  c #C5A17E",
"K  c #C8A27E",
"L  c #B29780",
"P  c #B59981",
"I  c #BC9D82",
"U  c #BD9F88",
"Y  c #BFA185",
"T  c #BEA28A",
"R  c #C29E82",
"E  c #C5A283",
"W  c #C9A484",
"Q  c #CCA986",
"!  c #C4A58A",
"~  c #C9A68A",
"^  c #C6A88C",
"/  c #CCAA8C",
"(  c #D1AD8D",
")  c #CEB08E",
"_  c #D1B08F",
"`  c #C5A991",
"'  c #CCAD91",
"]  c #D0AE92",
"[  c #CFB094",
"{  c #CEB49B",
"}  c #D2B294",
"|  c #D1B49A",
" . c #D8B798",
".. c #D1B89E",
"X. c #D2B6A0",
"o. c #D2BAA1",
/* pixels */
"= = = = = = & & : : : < < 1 1 1 9 q t t t t s x v x v v L L x L x z x t z t 9 1 > > ; = * * $ # # # # # @ + @ O # @ + + O O + + ",
"* * = = = , < < 1 6 6 1 6 9 9 t t t t x x x x v m L L L P P L L L L L L v m x x p t t 9 6 6 4 1 > - ; ; # $ # @ # O + o o X     ",
"* = - - = - - , < 4 1 6 0 0 t t p x v x m V v n V L L L L V L L L L L m n v x z s p p 0 9 4 9 0 0 6 4 1 6 1 > > : ; : & & & @ @ ",
"* = > > > , - - < 1 4 6 6 0 r t p p s z x c v c v c v Z L L L L L L L L V n x z x 0 0 4 2 2 > > = ; & ; : : & & : : : > & : : : ",
"* * = , < , < 6 6 0 r r t p s s M v V M P P I L P I P P I U U I I P V V n c c c c c p p s p r r 0 6 4 > ; ; * & & & % @ % % % @ ",
"* * & % * & * = = < < 2 2 2 9 z x z V Z V V V U P I ! ^ ! U U U U U v m v p p s 0 0 0 5 2 < 2 < > > ; = ; > : * : & & & & & % % ",
"r r 6 6 r 6 7 r 7 0 7 0 0 0 0 0 w p w w w z v q s z v v m V V V m V m V M v c a c d s r r 7 5 2 2 > > = * * * # & $ $ $ @ @ % @ ",
"2 3 r r r r s p s n n n c M Z V Z U U U R R R R R R R U U I I I R V P V V b c a d c n M n c n d p r 0 4 4 4 > = ; & & % % % @ + ",
"2 2 2 4 5 5 7 7 w y y d c b M Z A A R R R ! ` ` ! ! ` ` ` R U ` / ! ! R I C M V b b d p w w 0 7 4 > 2 > > , < < > : & & & % $ @ ",
"5 4 7 3 5 7 e 7 y a b c M M b C C A I R R R R ! R ! ! ~ ` ' ` ' ` ' / ` ` ! ! R R I A A A M b c d u p 0 5 9 4 , < > > > : = * = ",
"6 5 6 7 7 7 r r y u y u d b M C C C C F R ! ~ ~ ` ` ' / ` ' ] ' ' ' ` R R R R R I A A A C N V B M b b a z a p q 0 6 6 1 1 < < > ",
"6 5 r 7 r s s s d c b M M M A R R R R R R R R R R R ! ~ R R R R R R R R R F A Z N N N V M l g M g a u w p y w 0 4 4 6 4 1 1 < : ",
"1 3 5 5 r r e u a M M M Z A R E R ~ ' ' / ' ' ] | ] ' ] | ' ` / ' ~ R R R R I F C C N M M g g g d b g g d a u w w 5 5 4 2 < < - ",
"r 7 r y y y u s c b g M C C C I R R R R R R ~ ~ ~ ] / ` ' ' ' ' ] ' / / ' ` ~ R E E R Z A A C M M b b g a a u w w 5 5 , 2 - - = ",
"4 3 7 y u i a k M C A A A R R W ~ ~ / / ] ] ' / / ] ' ` / ' / ' ~ ~ R ! R R R I B A A A A M M b b b b g a w p w w w 7 4 4 2 > > ",
", , 2 7 7 7 e u i d l M N F G R R ~ R R ~ ~ ~ / / / ] ] ' ' / ' ] ] [ [ | ` ~ / ! ^ W E R E R R A C M b b a p a w 5 9 4 4 2 1 1 ",
"2 2 2 r e r e e u u s k M M Z B A A E E E E E ! ^ ^ / / ' ' / / ^ ^ ^ ^ ^ E E E E ^ E E W W I E E E A A B B V c d p y r 0 2 1 1 ",
"y s s i s j i j N A J A B B J A N Z B B C A C A A A C A B C V B A A B B N Z B N M k d j M b M M b b M M d M n M c d s p r r r 5 ",
"r r r r y i j j M N N A J A E ^ ^ ^ ^ Q ^ ^ ~ ~ ! W E R E E E E ^ J J Y Y J J A N N B M V M M N j k d a s i p y 0 y 0 7 4 4 1 6 ",
", , 3 e s i i f d d g N N N A J E J J E W W E W W W ~ ~ ^ W ! ^ J J Y E E E Y J J J J J A A A A N B M Z M M a i y w 0 4 < > = & ",
"2 6 3 r e u i j g l k g k l N N N B N B C B A A F G G A C B A A B M M N N N M M j k l k M b g d j k a d d k d d u p y r 6 5 6 : ",
"7 e e i i i j j g M M N N B G A E R E E W ! ! W W W R R R E K E J A J J G F B A B Z k k N b l g g d i u u y 8 r w 7 0 7 2 > - = ",
"e e u e f f f k b N M N G G G H H G R E W W W ~ ~ R R H E W E W E E ^ Q W W J H R G G A G G G F A A N N N M N M c d d a y 5 4 5 ",
"i j k j j l B B A G G J G G J W W W W W W / / / W Q Q Q W ( / Q / / / Q / / ^ / ^ Q W W E W G E G F A A A N M k M g d p y 0 7 5 ",
"3 r e e i f l N k l k B D F J E E W E W E Q / / W Q ^ Q ( ~ W / / / / _ / / / ) / / / / ) ) / / / / ~ ~ ^ W R R A B M M d p p 0 ",
"r e i i k f l l B B B B S D D G G F G A D H G H G D G G F H C F G B N N B N N N B N B l l B N B B B N B B M N N N M b g c d p r ",
"e u e j k l l B l S D J H H H H K W W K W K K H H K J H H H R H G J D D D D D D D G D D D B B N B N B N l M b b d a d u u w 7 7 ",
"i f j f l B B D D J D J W R W W W Q Q W W H W R E E W W W W W R W W Q W W E E W E K K E K H H H E E G G G F A C M b g c u p y 0 ",
"u i g M B B B F J J H E K W Q ( ( ( ( ( ( Q Q W Q ( Q Q ( ( Q ( ( ( _ ( ( ( / / ( Q Q W Q ~ W E W W E H F C S C N h b g a u u w ",
"j M N B A G J E W W Q / ( ( ( ( ] ( ' } ] ] _ } ] _ } } ] ( ] ] } } } } }  .} } } / ( ( ^ [ / / ` ~ / / ! E E R R Z b b b d z w ",
"k k j M B F G G W Q Q / ~ / / Q ( ( ( / ( / / / ( ( / ( ( ( ] ( / / ^ Q ^ / / / / ^ W W Q W W ^ ! ! R R I E R I I C V M V c d p ",
"e i g l M B B D D J J J H E K G E R H H E W K W ~ Q E ~ W R W Q W W K G J G G G N B G A F B G A B B N N g N C N b d d d d a p w ",
"8 u g f g h h g l S S G G H H D H D D G H S S D F F H S H F F H J E J K H J H H H H E E W H H R H R H F F C S N N b b a u w w w ",
"i u g f g l N l l l B D H D G J F H H H H D S D F S S N C G H H G F F H C F B C H B N N F S S H F N F N C h N b b g b d a w w w ",
"8 e i f f g k l D S G J E K K W E W K K K K K W E E W H W W W E W W K E W H E W E E W G R R W W W R E R R F R C A C C b b d z w ",
"y f i g l N N N B D F G H H H G H G H G G H G H H H K H E R E R E E H K H E W Q Q W W W E R W W W W / W R R G A C C b b b v b d ",
"i d l N N N B B D D H G D D K J D D H H H S S D S D D B H S H H S S D D S S S N N l N B B S l l l l g N g h g i f u u y w w 5 3 ",
"g g M N B N N H K J W K J Q K E Q Q K E E Q K W W W W E W E Q / Q ( ( Q / / ( Q Q E W W K J J E R W J J G A A B G F b d d a w 0 ",
"j N N A G J J E K Q ( } _ } ) ) _ _ ( _ ( ( / ( ( ( ( / / / Q ( Q Q W Q Q / Q Q Q E E E Q E E E W W E E J B A B V C M c M b d p ",
"N A B A J E E J J G E K K Q Q Q Q W W ( ~ Q E W W Q W Q W Q Q / W W E E W W W W Q E J W W J Y J F E E I A A A M M c b d c z w w ",
"u s i j l B B J K K ) Q ) ) ) } ( ( ) / / _ Q / / / Q / Q / _ _ / / / ~ Q ~ W G J J J E J J J E J J E J A Z N N N N M d a s y 7 ",
"3 e r i i k j l B A J J J K Q K Q Q Q Q Q Q Q K Q W K Q Q Q Q Q Q Q / W W E E E J A A A J J B B k M Z N B M M d d c p y r r 7 6 ",
"r e e j j j B B B A B J G G J J D J J D J J J D G G J J J J J A J W W J J E G A N A J J G J J R J B A A B B M M M d a p y y 0 4 ",
"e 7 e e e f j l l l B B B J J K K W Q K E K W J K J G G J J J E K Q / Q / ^ W E E A J A A B A A B B B M N k b M d d a u 0 7 2 < ",
"3 7 e u f k k f l g l N N l N l h N N N N N N N S F B B F G F F B S C R E E E H J W J J K J G G G J J B F N N N M M b d u y 0 5 ",
"u e u d j l B B B D D J G D H K H K W W K E K K E K H F H R G F B A A H G F C C M k M M N B N N M B B Z N h M b g g d y y 0 5 5 ",
"e r u u j i d k N B F D G G D G H A D H F H R H J E E E W E W W R E W W ~ ' / ~ W E J N C B C h g d s i a w w i w w 0 5 , > > > ",
"u i i k l B B A J E K W Q ( _ Q ( / ( ( } } ] ( }  .}  . .} } } } } ] }  .} ] ] [ [ [ } } } ] ] / Q ^ ^ R R I A C b b c b d a p ",
"7 r e e i j l B B A G J Q Q / ( ( ~ ( / ( ] W ( / ( ( / ( ( ~ ~ W / / ~ ~ ~ W W W W ~ ~ ^ W E E F G A A B V N M d d d d a p 0 7 ",
"e e e s f j k N B A J J J E K Q W W K Q W W W W R W R W R ~ R Q ~ ~ ( / / / / ( / W ( Q / ^ W E A G H A N N n k d d a a u y w 0 ",
"r e e y u i i f l l l B D G G G R H R ~ W Q ( ( / / ] ( / ] ' ' ] ] ' ' / / / ~ ~ W J E W W ^ J I E A A A Z M n c s d p p 0 6 7 ",
", 2 , r r e u i j k M N N F F G G F H E R ~ ( / / / ( R R / / ' ' ( / ~ / ] ! / ~ ~ ~ ^ [ / ` ^ / / / ^ ^ E Y Y I A V V n c c x ",
"e 7 2 3 r e u u d g b M N M C G R E E R W / ] ] ] ' ' ] / ] ' | ' ' ] ] } } [ / ~ E ~ ^ W ^ A Y A Z n c M c n d d s 0 0 9 4 4 4 ",
"3 e e r e e e s d b g N B B A E W ~ E R ! ~ ~ / ' / ` R ~ ' ] ` ` ] ` ' ' ' / ^ ~ E W E J Y A A V M M c a a u u p y 0 7 7 2 4 2 ",
"r r 3 e y e e j d l N B A R E ! ^ / / [ ' ` ' ' ' ( / / ~ ` ' ' } ] ] ] / / / E J E E R E E A N A A N A Z Z M Z c n c n c p s x ",
"e 3 r e r r e y p u d d b M N C B I E R ~ ~ ~ ! R ` ' ' ] ' ' ] } ] ] ' ] / ` W E ! W ! ^ ! E Y E Y E A A V M n c c d s n c s x ",
"3 3 3 r 7 e u y u d d c d b M M B I I G ! W E ! R ' ' ` ` ' ' ` ` / ^ ! ! R R R A A A Z A C M M b d b c d p y y y w 7 5 6 5 1 < ",
"3 3 3 5 7 8 7 y w y a d g g b M V A A E ! E ! ! ~ W ` / ` / ~ ^ ! ~ ^ ! W ! R I Y A A B C C V M M c a d p p p r y p r r 6 r 0 9 ",
"7 e 7 y u u u u i a g b M M A R E ~ ^ ^ ` ' ' [ | ] | | ..| ' { | } [ [ ' ` / ! E Y Y I I I A n M V n n M n n d s d s s s s s p ",
"r y u u s u a a d d M M V Z A I P ! ` / ' ` [ [ { { { X.{ [ { { ..X.o.o.| X.X.' ' ^ ^ E Y Y Y Y U M V n M n n c c x t s t s s t ",
"7 e u s a a d n b M b V Z P I R ! ` ` [ X.| { ..X.X.{ X.X.o...{ { { { { ` ` ^ U I I I Y I A A V M n n c c s s p p t p p s p t t ",
", 3 3 3 4 5 7 7 r y 0 p p a d c c M P U P P P T U U T U T ! T T ! U T U ! U I P Z V V n V c c c s w p y p w p 0 0 w 9 9 6 7 0 r ",
"3 e 6 3 0 w y y p p a c d c c V b Z P A I U ! T ` ` ` ` T T ! ^ ^ ^ ` U ! R P A M M V M c d b z a w p a w p w p r y w a p y r t ",
"6 3 e r y w y y a u s d d c M V C I P P P I U U U T ! U ` ` U T T T ! U U P U Z m V M c s c x c c a a c c c a a p c p z p w t y "
};
