/* XPM */
static char *_44238aafa464f7cdd5d1200ed59fd9bXjTG76npc83HQ2tj[] = {
/* columns rows colors chars-per-pixel */
"64 64 74 1 ",
"  c #BB8A50",
". c #C08E59",
"X c #C1925A",
"o c #C69A67",
"O c #CA9B65",
"+ c #C69D6C",
"@ c #CC9D6B",
"# c #C7A26E",
"$ c #CCA26E",
"% c #D1A36F",
"& c #CDA373",
"* c #CEA975",
"= c #CDAC7B",
"- c #D2A674",
"; c #D3A976",
": c #D4AC7B",
"> c #D9AD7C",
", c #D4B17E",
"< c #D9B07E",
"1 c #D5AF80",
"2 c #DAAF82",
"3 c #D6B384",
"4 c #DBB484",
"5 c #DEB987",
"6 c #D7B688",
"7 c #DCB689",
"8 c #D7BC8F",
"9 c #DDBA8C",
"0 c #DEBE91",
"q c #E0B686",
"w c #E0B887",
"e c #E0B78A",
"r c #E1BB8D",
"t c #E2BE92",
"y c #DEC195",
"u c #DEC399",
"i c #DFC89F",
"p c #E3C295",
"a c #E8C397",
"s c #E5C59B",
"d c #E8C69D",
"f c #E5C99E",
"g c #E9C89E",
"h c #E5C7A0",
"j c #E9C7A1",
"k c #E6CAA2",
"l c #EACCA4",
"z c #E6CEA9",
"x c #EBCEA9",
"c c #F0CFAC",
"v c #E9D0A7",
"b c #E6D1AC",
"n c #ECD2AC",
"m c #F0D3AE",
"M c #E7D2B2",
"N c #EDD5B2",
"B c #EED8B5",
"V c #EED7B8",
"C c #EEDBBA",
"Z c #F0D6B3",
"A c #F0D9B6",
"S c #F1D6B8",
"D c #F2DCBC",
"F c #EFE0BF",
"G c #F3E0BF",
"H c #EFDEC0",
"J c #F3DFC1",
"K c #F3E2C4",
"L c #F5E5CA",
"P c #F8E7CA",
"I c #F6E8CD",
"U c #F9E8CD",
"Y c #F7EBD1",
"T c #F9EBD2",
/* pixels */
"CHHHHHHHHJJHKLLKLLJLLIITTIPLKIPKPIPPPLLPJJJJKKKUUKKPKKGDDSAABBnb",
"HLLHHLLKLLIIIYUIIIIIIHDSNhskxxlNNVBBBNnljjdgxcxmmncvlxxkkgup9444",
"bMMMCCHHHHJHJJJCSVNblxMmbxzNASZZNnnljf09ttaddlcvxgggdatr5tt9p9pp",
"hkkkkkzzzzxxxllllkklnnMSDDDDDKDDSASAnxlllllllxnmmmvxvjpar7756ppp",
"0u0hui0hhsskzlxxnbnNNnNSSZAZZZnnmxxxnnNZAADDNmZmmxmvxldppt0r55t9",
"0ihuuuhhzlzbNMVSDGDDKDDDDDDSAAAANNZVNNxxxxggddppgdgddaaa0tpppp0p",
"iihlMxMnMnnNNNNAZASABnmZmmnxlnSGDSZlsssddjllxxcmcvcvljglksfffsss",
"bMMMMSMZNbxnnNnVVADGAANnnxxllxnZNmjshxxxmZmmvcxxljgjlllljdpptpp9",
"VCCBNMNMVVCCHLLLPLLLHGDDSBASANNVmnmxmmNZZmmmccxcmlcmmcldltprtdpt",
"HCHHHKKLKLLLLIIYTTYYYIILLKDDAZnnnxxnmmnAmAnmmmmlxvxccmmljtdddpps",
"CCCFHKKKKKLKLLIITTITYITYTTTTTILPPPPKKKPKKKKDAZmmxglcvmmcmvxljkkd",
"bMBBVCVKKLKLKKKHDGGDDJKKKLKKKPPKKKKPKKDJKKGKKDDGAGDDDDDGSAAAABNn",
"iizzbvNbNnBSMnbnvxxlvnnnNnNnnNnnxxxxlkjglllxxvmmmmmmnvllsrdlvnnn",
"izzzNnMNBBASDAADAAAZAAAAZNABnADAANnncxjljjjxxjllmmmmnmxdpplvldpp",
"kkzzvbbNnnnbnbnNnAABNANmnnlnlvnmnxnnnmcnmmmmmmmmclmmmZZmlgfsp0ry",
"yusfkvbnbNVSDDDDDDKGKKKKKGDDDADGKKKKKKKKKDDGGKGKGGGGAnnxdssfllvl",
"uuhkkzNbnZAASAASDDDSDAAAAZmnZmZAZZmmmcvcvxljkdjklvcvmmnmnnmmnkkd",
"0800ssskklvMnNnnnnnnnmmnvnnmmnmZZAvvggdpdggdpadhglllxjkjdkjggdst",
"00ussfkkzzzznnxzlkkkllxlkjxnnnnnAAZZAmZZAZmmxjdaaaddpaaprrrtttpt",
"MMNbNBCCVDDDDJCJDDDDDDDAANAAAZADGGGGDGDKPKPUPUPKKGDAZmmnjdatrr77",
"y0sskvzfskxznvvnnnnnxlnnnBNNmZNnmZnxnxxxxcxcnvxxxxxcmnmnnxnnxxlh",
"++3kvkhf0suhlnnnlspfsfgvNnnBblkfddfgffpdaaarpprrqq4>><4rrrrttt04",
"6680s898900fklfsyknBSBSDCGDDSDDDCCSVABNANZnvnlkzdjjgpapps77,:;;>",
"99979tfkfssssfxbDGDDFDDDDCGDDGDDGGDSDDDDDGDDDDDDSSSAAAANSxxkt3&o",
"kkzzbNNNbbSSJKKLKKKKLKGGKKKKJDJDGDGGDGDCVDCCSDSDDSAASAAAAmnllkgp",
"HLLLLIIIIIYTTTTTTUTYTUTIUUITYILULLLULLIIIPLPPKKKKDGGKKJGDDDANNNN",
"CCCHCKGGFGKKKKKKLKKKKKKPKKLLLLPPLLKKLPLLUPLPLKPLKKKDASADSSCAVBNV",
"BBCCDDKKKKKKKKKLKLKKKKKKLLKLPLLPLLLLLLKKKJDDBNllnnllllxxklkfftst",
"MbNNBCCCCCDGDGKKKKKKKKGGKAnbxxnADVBnBGAGDDDDGSAZZAAAmxnxcvxlksfp",
"36550psvnnNBnnbnnbvlxvccvllldgkst45pfvnvlkljddddpgkxaasnnvxvxxkd",
"=36yyppfvnnnlkkkkfddlmvxnnmnvxxdptgmlptrrrrrrrrttrrtppprrtpgldgj",
"3499ppupsy999tpppsjxvmxldpp5pp5dxNAlrrpaptapapadgljdddddgllmmxvx",
"5009pusssdfpppsspddgddssat7::qpmAVnpdvcdptttrttttsstpssdddkajjp4",
"yyppppffllklnnxlvkggkksdfkfspddjmnndrsjgaaaptrtr7tpttrttttapr;@@",
"skfkzvbNNAAAASNnnnxgmSsscnAnnjgdtaaadppaptssaadjxxZZnnxlgptpsts:",
"sufkkfkssspsfkzxvvcknA-fZNmnZZnxxxxnmnZNnNSNnxlhssptagkxkmxs4td&",
"0ssssussfkfsssfhdglknv-klllnmnmNSBDJDGKKKKUKDKDDANnnkdsr2:2tr497",
"zzVVMCBSDGKJGKDCnlflZk9kknBBDGDKKKKKKLKKKKKJKJDDSBDDDDDSNzh27tsp",
"@8bzs0599tfklvnNASnlmlgvjnANADDDDSAmnlNBAAZASnnmbxnxxxlxlkll0tft",
"1yNxu0sfdffffllnnvNnNZmmvlgssapdsgpse<llxxglkdatatrre424>--::---",
"0ubnvsssklkklflvnllxlxxlxmmvvgjgffssp5nnllllxkjdggjjkjadatttq4r5",
"kkkzNnllvlxxxxnnnnlnlvglkgddkggjlxxllrgnmnlrtaddjddadsddafsatrtt",
"u8p06uNBNNNnnnnBBABDDAAAZmNNmvxlggjlkaxmmmvpe4tpgjggdljlxjdgjdsp",
"7=5&8BCCCKCKKKKKKKKKKPGxspssdprdsddagfdjgljjattrtattrtttttttr77;",
"u*=iBNnNNBBDCDCFDDDKPIPDst9pdgdpppfsakdssa4%qpdgdprwq4qeqrr4--@O",
"u6MCMDFFKKHKKKKKJKKGKKLTBdsf5svk9:pptttr4r445adarrtprtrrtrtr7--<",
"6zBMMNBCCDDDGDHCDCGGKKKKKVt49sxptrpsdkjvxnvxktrrrreqq224qqq4>>><",
"689yufzzbvnvnvnnnnNVNBDFKPKklxrrpppfdfssprrwrrttteqq2qq4tttt44;%",
"63365y9090ppysfflllllknZDDDGDSBnZAZZADDAASSAADADSDASSDDAAAZnvls0",
"uyuuuy658y9pfjkllkglNbnmmZZBBSGGKKGDDGSDDDDDADAZZmcmxkxxlxxglvlk",
"48yuiifkkxkkkkfkvvvNABNvvnxnZABBADDDKDDDGDDAASSSDmmNZNZmmmvvllkl",
"uuifkkzbvnBBVBCDCCBBSDADZBSnnNBNAAAZAZNnmmnmnnxlnvgagjdjkglghfsf",
"NBBBCBNBABVVNBCVVVCCBBCCDDDDDDCCDGDGDSSAZVDASSNNBBNnNndtt74rtssp",
"bbbMMMMBVCVMVDCGKHCCCDKKDGGGKKKLKKKKLKKDGDKKLLKUKDAxfrre744e<7us",
"ufifikiyyyssklvlxllvvbnNNSDSCDGDDJJKJDJCGSSBnxft4>:>>qrq-ts74:;&",
"uuuuuy666477t90564444,<<459t9pppfsfsfshp954;::::4wrrste--;;4556:",
"==,,=36646643444445w595<5rrppapdsdffdpprrr5rtptrqr5rwq>O .%O4r5,",
",,,6669y999psfkkgzlnnvlgsssfgvnvvnmmnmvvvlkdsppdfkgdstt547p99y05",
"6yyuuuusuupsklllzlsfkdpppsfpspfgppvllxlxxlklgkjjkgggsspppt099443",
"yuuifufsklkvlkkfpp9yprppppaappppsglmnvvlkdjfgsspppptpppy5754344:",
"o#=68yyyyp05433:350sfspppppaspfkfskllffffflkhffsdsgffppr65<,::;;",
"yiiikzfvlzziskffsifkffffpsspppp98tsssssglsflxlllkdprr54,:;$$#$OX",
"6yyyyyyuusszvvMCVVDCDCBBbvnbkp89s95:5psp59574:>44<><<4<>:;;;;%$$",
"68y999pu999psppy9999909prypfp9tpy55:34nlp9995544<<<44r5555965956"
};
