/* XPM */
static char *_7a47bfe3b3c43fff4b4d51410220080FFYZoyfeKLWXhHft[] = {
/* columns rows colors chars-per-pixel */
"64 64 173 2 ",
"   c #3A220E",
".  c #3D2612",
"X  c #3F2914",
"o  c #402615",
"O  c #412917",
"+  c #452D1A",
"@  c #4C311C",
"#  c #51351F",
"$  c #4E3521",
"%  c #523624",
"&  c #543823",
"*  c #5C3D25",
"=  c #553C2B",
"-  c #5A3E2A",
";  c #593F30",
":  c #5D422C",
">  c #5D4332",
",  c #604027",
"<  c #63442C",
"1  c #6A472D",
"2  c #67492F",
"3  c #6A492F",
"4  c #644632",
"5  c #654A34",
"6  c #6B4C33",
"7  c #674B39",
"8  c #6B4E39",
"9  c #714E34",
"0  c #6D523C",
"q  c #735137",
"w  c #73543B",
"e  c #79563C",
"r  c #77593F",
"t  c #7A593E",
"y  c #6F5541",
"u  c #725642",
"i  c #755943",
"p  c #7C5C43",
"a  c #755C4A",
"s  c #7C5E49",
"d  c #7F6044",
"f  c #7E614B",
"g  c #805D3F",
"h  c #815E44",
"j  c #836146",
"k  c #886346",
"l  c #84644B",
"z  c #89664C",
"x  c #87684C",
"c  c #8C694E",
"v  c #856750",
"b  c #866951",
"n  c #8D6C52",
"m  c #8E6E58",
"M  c #916E53",
"N  c #8F7054",
"B  c #8D715A",
"V  c #947156",
"C  c #987557",
"Z  c #95745A",
"A  c #99765B",
"S  c #9C795E",
"D  c #A07B5E",
"F  c #977760",
"G  c #977961",
"H  c #9D7C62",
"J  c #9F7F68",
"K  c #A17E63",
"L  c #A17E68",
"P  c #9F8064",
"I  c #9F8069",
"U  c #A48166",
"Y  c #A5846A",
"T  c #A9866B",
"R  c #A6886E",
"E  c #AC896E",
"W  c #A78770",
"Q  c #A78971",
"!  c #AD8C72",
"~  c #AE8F79",
"^  c #B18E74",
"/  c #AF9176",
"(  c #AF9079",
")  c #B39176",
"_  c #B99477",
"`  c #B4937B",
"'  c #B9967C",
"]  c #BB997E",
"[  c #B69780",
"{  c #B69880",
"}  c #BB9980",
"|  c #B99B81",
" . c #BA9A81",
".. c #B99B83",
"X. c #BA9A83",
"o. c #B99980",
"O. c #BD9B82",
"+. c #BA9C82",
"@. c #BC9C83",
"#. c #BE9C83",
"$. c #B89984",
"%. c #B99A85",
"&. c #BB9B84",
"*. c #BA9B86",
"=. c #BB9D85",
"-. c #BD9D85",
";. c #BC9E86",
":. c #BD9F87",
">. c #BF9F86",
",. c #BC9B82",
"<. c #BD9E89",
"1. c #BF9F88",
"2. c #BE9F8A",
"3. c #BF9F88",
"4. c #BFA187",
"5. c #BEA086",
"6. c #BEA088",
"7. c #C09E85",
"8. c #C19E84",
"9. c #C0A087",
"0. c #C2A087",
"q. c #C0A089",
"w. c #C1A389",
"e. c #C0A28A",
"r. c #C1A38B",
"t. c #C2A289",
"y. c #C4A48B",
"u. c #C0A18C",
"i. c #C3A38C",
"p. c #C2A38E",
"a. c #C2A48C",
"s. c #C3A58D",
"d. c #C3A48F",
"f. c #C5A58D",
"g. c #C5A58E",
"h. c #C5A78F",
"j. c #C6A68F",
"k. c #C4A38A",
"l. c #C8A68D",
"z. c #CBA98F",
"x. c #C5A691",
"c. c #C7A790",
"v. c #C7A790",
"b. c #C7A991",
"n. c #C6A890",
"m. c #C7A892",
"M. c #C9A990",
"N. c #C8AA92",
"B. c #C9AB93",
"V. c #CBAB93",
"C. c #CAAC92",
"Z. c #CCAC93",
"A. c #CBAD95",
"S. c #CAAC94",
"D. c #CCAC95",
"F. c #CDAD94",
"G. c #CDAD96",
"H. c #CCAE96",
"J. c #CDAF97",
"K. c #CFAF97",
"L. c #CBAB93",
"P. c #CFAF98",
"I. c #CEB098",
"U. c #CEB098",
"Y. c #D1B097",
"T. c #D0B099",
"R. c #D1B19A",
"E. c #D0B29A",
"W. c #D3B59D",
"Q. c #D3B39C",
"!. c #D4B5A0",
"~. c #D8B9A4",
"^. c #DCBDA8",
/* pixels */
"K M C C C U K U U D U U T U T T T S S C A S N V A S A S A P P P G I Q / Q ` ( $.[ ! ~ ~ H x e < * 4 2 < : : * * 6 r F W T ! ` ` ",
"U U E ^ ) ) ^ E T T E U D D U C M A T U U T Y E ) ` ) / ..] ` 5.5.5.5.6.6.6.6.6.v.7.#.%.Q H n r u r r 8 w i w l m Y Q ! } ..~ Q ",
"T ! ^ _ ` E E R T E _ ^ E ^ _ U T ) ' ` ` ` ] 5.' ` ` ' ..k.x.x.;.6.m.A.N.N.6.N.h.x.m.m.k...' Q Q ! K Y R Y R ! ` Q Q ..8.' ' ' ",
"M Z Z H T Y Y I E T E ) _ _ _ E ` O.9.M.C.y.l.h.C.h.E.E.<.;.A.U.A.W.W.m.6.U.U.W.G.U.G.U.G.M.v.y.5.( R H Y ! R ` ! ` ;.k.O...#.^ ",
"! ~ ` ( ` ;.' 6.{ $.x.B.0.w.l.y.V.T.T.T.A.6.<.;.a.;.$.<.x.x.2.x.s.m.A.*.6.6.6.{ <.%.` { ~ Y G Z x l w p m B P H M ! } } #...` ^ ",
"G J ;.6.m.A.6.N.m.U.U.U.z.F.U.C.D.G.x.%.;.;.;.%.$.$.2.6.%.~ ~ ` ! Q Q J I I Y I Y Y Y ! W H J H H N Z A I ! T U ! ~ ' ` ^ ^ ^ ' ",
"u.6.m.m.N.U.U.W.~.^.U.x.B.!.W.W.u.k.<.{ ' [ ~ ( ..{ $.{ [ $.<...s.B.U.m.u.<.;.{ / ! / ( Y J Y Y Y I K Y E ' k.) _ ) 7.^ T 7.i.k.",
"Q Y W ( ( Q Q G I ( ~ [ { *.( ` Q I W Y F m m Y Y ` Y F J ~ ~ [ ( ` ;.Q ! { ( Y Q I A G Z J W K U H U U A E ) U A H ^ ! ~ ` T ' ",
"6 w p p p d l B Z G W ! ~ ~ ~ Q L ! ` ` ! T ' #.8.8.8.] ' ^ T Y F Z I W G Z H Z Z Z Z Z H K W O.8.l.' ' ^ E L b p M Y ~ ' ` ^ ! ",
"k.6.;.{ ....;.$.%.$.` ` ` ~ Q I W H Y ^ T W ' ^ ^ 8.Z.Q.T.l.k.l.6.6.x.x.u.s.s.h.s.s.k.;.O.` ' 8.z.z.8.] ) ) ] ` ' O.O.%.8.' ) ` ",
"I I I Y Q Q I Z b f s a a s f v m Z I Y Y T Y U T ^ ] 8.k.8.' ..[ ;.[ [ ' ! ! ;.;.' ' ..8.8.8.;.] ] ' ' ' ) ` ^ ^ ` } } ` W H G ",
"w r f b m b b b b v l s i u i s l G Y Z Z m l z l l k C K L T ! ! <.{ ! / ! ( 6.k...' O.8.8.` ) ) ) ^ E E U Y H Y Y Y Y Y L Y W ",
"> 7 0 i i y y y i 0 y a h s a a i q i d r w 8 r p p p l b n Z H Y ` ( I K ! ` ` ^ ;.} ' ] ) Y ! U T E E Q Y Y Y W Y Y W Q Y J H ",
"y y i i y 7 0 0 0 7 7 7 y y u u 7 : 2 6 6 8 w i w w w e p p l x B H J H J H H Z K T W T E L C C c M N M n h u p i 9 8 8 6 5 6 7 ",
"$ + + X X . X + X         X @ % % : - & # @ @ & : - & & & * & * * * < 6 8 6 2 6 < , 1 e p h e 9 q q 9 3 w w 8 9 w 5 7 6 4 5 w a ",
"y y a a a 0 y 0 0 0 y y f m m m G B B G B m J G Z Z Z Z F H F Z l Z M x c B Z U n p n K U U E T P P Z V V Z M F F z l h p p s l ",
"m b b x b n l i p p d x n B N H I Y T T K H Z c z H ~ ^ Y A Y ~ / S S U Y T E ) ` ! ! ) ^ ^ E D P U U N z z M z l z z b n z p x ",
"c b V n M c l l j j c Z H H U P U Y T K A S L T K ^ 8.8.` ! ` } ] ) ) ) E E ! E ' _ ' 8.] _ 8.l.] ] ' ) ^ ^ T K Z C n n Z Z z n ",
"H S K A Z V z c h j M D U U U A S K T T T ^ ] 8.} 7.Z.l.i.7.#.' ' ' ] ) S S ) 8.' T K ! _ ' 8._ ] ] ] ] } _ ^ 7.8.8.) T H S A Y ",
"Z Z V c C C c c A H Y T U U T Y A H L U K K U T 7.] ' ~ ` ' O.} E ) ) ' E Y T H A c n A Z M C k N k d j c l h z M M C M n c k l ",
"T E U A H U Z C L T L S H K L E ` ' ' ^ K H T ! ' ` ' ' [ ~ W L P ! ) ] ^ ~ ^ K H n l c c M C C P S A C A C z n C C V z t q 1 1 ",
"E ^ ! L U Y U Y ^ [ ^ E _ _ ^ _ ^ ^ ` ~ T W ~ ' ' ~ ` } 7.} *.7...` / ` ) ` ^ E ^ E U D C M D T T ^ _ E T T T ^ L L ^ ^ U K M M ",
"Z V Z n z z x b n M z z n z h h z z z z z z c c Z V H H L A H F A S I ! E K K T K K S U E E T D T T E U T _ ' ' _ ^ T T T K V z ",
"z l n n n n n Z H F Z Z F H L E E E L H F H Y T Q ! ` ` ` ~ ` ) / ( ) I ^ 8.' ^ ^ ) E T _ E T U E ^ _ ) E ^ _ } _ ^ ^ _ ^ ^ D A ",
"Y T E L K K D K ^ E T T T T T L T E E A A K L L T E ) ' ~ ~ ` [ 6...` ` ] O.] ) ] O.^ T T T T _ ] _ ^ E T T E ^ _ ^ E E T T E C ",
"H L ^ E E E T T L K K E _ _ ^ ^ ) ] ` U D D L K T ! ) [ 7.7.7.7.5.{ 9.;.) ` ] E S T T S U E E T E E ^ ^ ^ ^ ^ ) T D D L _ E _ E ",
"K A U E E E E E L K D K T L K K T T K C C L L L K K L E ^ _ _ _ ` ` #.` E ^ ` T D S A S D D D D C M C S C S S D D V n C E E K D ",
"A M C K K U U U K K K L T K K T K Z M M D K D D H L E ^ ^ _ ^ E Y Y U C A K K S U U A C c C C M C M c c c c c V M C M h c l k M ",
"K T K K T U D C D D K T E T K T A D D C M M V L E E E T E ^ _ O.8._ ^ T ) _ ^ ) E E D S A S U S M C C S A A C V S K D S U C z M ",
"U E T T ^ D D U T K T L T K D D A S D V M D K ^ K L E E T L E ^ E U U T U U U U E D V V c k V V C C C D D S D A A A C M D A c k ",
"K D D T T D U T K D D C D D D C D D C V K K K D L T K K L K E E T D U T T U U U U U C V V c C c c M c k z M C M c C D c k c k h ",
"E ^ E E U D U M D C C K K K K E E L D M A A D K L K K T E E E K T T U U E T D T T T K E E A A V C S C C A D T S T S A k c V V M ",
"x h h h p p l l p e h h p h p p d k z t r k k l h h h z k h h h k g k h h h t e 9 9 9 h u 9 u 9 p p h h z z z Z Z n b z z M A M ",
"F Z K Y K H K T K A F L H H K Y U U E T E ! Y H T T T Y K T L D M A A L U K H M M c M Z F V M c c z v l h p w p p s p p p w 6 w ",
"Y ! ~ ! T ^ E F Y K L W T K H A U H Y E E ^ ! ) ^ T K H D L L L U L D K K A H S L K L L L L L L L T E L T ^ T K ! T U K K n c S ",
"! E ! ^ ^ ! ! ! Y T Y Y Y Y T A ! E E Y U U E ] 8._ T S Z C C M D D T T Y S n M M V K L L S S L L K F A D K K K S A K Y A C M z ",
"F ~ 8.} ) ! ! T F H L W ) ] k.] #.' { ..] ` R Q } ' ^ Y L L L n C c M M V M z M c V A D A C D K K D A V V V C L T T ^ E H K L A ",
"} } ' ) ! T ! ` ` ^ ` 8.k.l.z.y.z.5...] ....' ` ' ) ` } } } _ ! Z K S L T H S M c C A L L L ^ L D K K D D K D D P T U D A M M M ",
"T ! T H U ) E K T K Y T E ) ] 9.] ..9.9.6.<.' ' ` Y W } ] ) ~ _ ) ..^ ^ _ ^ T L D D C M C C C c z h c D K D V D U D C M c c M M ",
"H ^ _ ^ E Y H Z n c M M n S U K Y R ! ! ! ` ` ` <.} #.i.l.k.7.8.8.O.^ L E ] _ _ _ ^ K D A D C C D D D C V D A K D C S D D E ^ A ",
"Z T U A U C Y H K K H K T _ 0.z.5.' ` / ' ' ;.6.7.v.V.D.f.7.~ } ' ' ] ' ^ _ E 8._ _ T T K L L D D K K T K K ^ L A U U U S Z D A ",
"K K H H A A A Y C M Z L ) _ ! K Y Y R H Y R ( ` T L E [ [ E T ' O.8.E ) T D ^ E K D D L L A M k h D A A D V A H P U S Z c z n c ",
"M c k p q p t N h M A ~ ` A c K I J Y ..E.W.W.Y.T ! ` L L ^ ^ W K U Y K S L _ ^ K D A K K V M V k M c k c c z c M c c c p p h p ",
"A Z Z M V H V Z n n K K M M L T A I Q I E ! / Y L K K M M L ^ ^ M p T Y K L K L T L ^ ^ T K F H D V V C C D C n k k C A A Z x x ",
"^ T K K ^ ] E M h C A Z H K A A c x j t e t C E L K K E T T L L U S T T K C Z p M A L L L Z m M k h M M z n z l l p l s h v v v ",
"D K L D C c S C h h c M h h z k c j t 1 2 w j h h h h k h V c h k z z n z M A z h h z m n l h z M M M z M n p x s p l v v v p u ",
"z M V A A V C M M C C M M M n h z j z c V c c M M c z z c z h h h e p z z h p z c h h h s p i p l p w w p w 6 8 u r 0 w w 0 8 : ",
"K K K K K U L L H M S K S K Y A C V Z V Z V V M c c V M A V M A A S k M M A H A M m Z Z m m n n V z n M b b n m l l p i u i u 7 ",
"A M M V V A D L K D C D C c A D P C k c M M N n b Z n A D M A V c M c C C V M j n c Z H Z m Z n b b v l d r r r y f i i a 7 > > ",
"V K L K M V L K L K K E K V M M D C C D S A Z V x N N Z V C C h k c M C C A K S A Z B n f p v l v l b F B b f w f f f f 7 > 0 7 ",
"A A A A M A K D L K E D M V D D P D P A M c c j l b Z Z M V C D C C A V n c c C V V M M p r r w l p b H Z B b d f d d 0 7 > 0 7 ",
"c z A D A D L K L K D k c C C C M k M M M N C C c j l c M M M V c z z h h e 3 q q 3 6 9 6 , < < w 3 4 6 2 6 w 6 : : : : : 7 f r ",
"A V V M k M D D M M M M M h g h g e g z z z l k 9 9 q h h k M M c z c M Z V k z n h q t l l c c i e w w j x x d w x p w x x i 0 ",
"g h k c c M V V M M z l k h h A C M M C C V M n M M l z n c k q g q q g z l p r t h t h j k z k b n l t x c x x n x n V j x l q ",
"c D D A V V A L L C h z K L T K E T U U U U S S S D U S A D V M V z z M m n b d 1 r j h p t e 9 e h c Z C C B C A N c l p k l k ",
"k A M h c K K K K M z D L T ^ K z C C C D D C S M z C M V D V A F Z Z F Z Z Z n c M V A S Z Z M H A A K S S P U Z A A C S K C n ",
"M c M A U K K M K A A Z U U T A z K U S C c C A M z h n M C l z m m x b Z Z m b b n z Z V b M C M Z A L H Z Z m V Z A z l c M l ",
"A C M g h z e w 6 e k 9 8 9 h 8 k c V M c k k k z h V c h g 1 9 w u 8 w z b z Z Z M V Z Z Z M n z Z A c h M L H Z p p n Z n c n ",
"A c h 9 h A h h k h z p q * 6 9 q r c V V k z c V c n M V Z b z w u 8 8 u w 6 u w e n n n b n F l F h u m m h v s w p z h l z s ",
"V z c z n D A L H S A V M M A z k n H T S V V c C D K H F A h 8 w < < 3 w 9 : * * * 3 8 p n Z z n p h m n h h 8 u s w 8 b v i l ",
"A n n b z z m M K T L L K T Y S m F L U K A K M D V M V H K F m p 8 i i u u 8 6 8 < < w l v m x l l u u s s y 4 8 y y a s i y u ",
"l l b p 3 1 z A D T K C k M M z h b n l h h c h c h h z b l l l l d b m p p l x B p 6 h m x v d w u < < u u : % 7 y y > 7 7 y f ",
"p i p 6 w i h Z C c z M z k c M p l h e e e h h e u h p w 4 i l x f a d p f f p w s f r < 4 8 2 : 4 6 w i y 4 ; = % > y > ; > > ",
"d l x l b h 1 q h q q g M V M e q i p p z c V M c c c h v p p 8 p b l l m v b m b b Z B w 4 < 0 w u s f i u y 8 ; a a ; % = = > "
};
