/* XPM */
static char *c29c953a01f24605b704989ce3fcac04RFvCh5wreW1TcV6U[] = {
/* columns rows colors chars-per-pixel */
"64 64 151 2 ",
"   c #31160D",
".  c #33180F",
"X  c #361B12",
"o  c #3A1E14",
"O  c #3B1E19",
"+  c #3D2116",
"@  c #3E2219",
"#  c #401F16",
"$  c #422416",
"%  c #492513",
"&  c #462A17",
"*  c #4A2916",
"=  c #43251A",
"-  c #48271E",
";  c #462A1D",
":  c #4B2B1C",
">  c #502C16",
",  c #522E1C",
"<  c #5A2F1E",
"1  c #4E301E",
"2  c #53311E",
"3  c #5A341E",
"4  c #422520",
"5  c #462A20",
"6  c #4C2D21",
"7  c #502E23",
"8  c #4D3123",
"9  c #543322",
"0  c #5B3523",
"q  c #563826",
"w  c #5F3922",
"e  c #5D3821",
"r  c #593825",
"t  c #5B3824",
"y  c #593827",
"u  c #583927",
"i  c #5A3926",
"p  c #5B3B26",
"a  c #5B3A27",
"s  c #5C3925",
"d  c #5E3A24",
"f  c #5F3B25",
"g  c #5D3A26",
"h  c #5E3B27",
"j  c #5C3926",
"k  c #543228",
"l  c #553729",
"z  c #5E3728",
"x  c #56392A",
"c  c #593A28",
"v  c #5A3B29",
"b  c #5C3B28",
"n  c #5B3C2A",
"m  c #5D3C29",
"M  c #5F3C28",
"N  c #5E3E29",
"B  c #5E3D2A",
"V  c #5F3E2B",
"C  c #5F3F2A",
"Z  c #5C3B2A",
"A  c #5E3E30",
"S  c #613624",
"D  c #603B21",
"F  c #603A23",
"G  c #613B24",
"H  c #623C25",
"J  c #633E24",
"K  c #603C26",
"L  c #633D26",
"P  c #653D24",
"I  c #643F25",
"U  c #663E25",
"Y  c #643E27",
"T  c #673F26",
"R  c #623B26",
"E  c #6A3E27",
"W  c #603D29",
"Q  c #633F29",
"!  c #623E28",
"~  c #613E2A",
"^  c #623F2B",
"/  c #653F28",
"(  c #603F2C",
")  c #633C2A",
"_  c #6A3F2B",
"`  c #663F30",
"'  c #5F402E",
"]  c #664127",
"[  c #654026",
"{  c #684027",
"}  c #6C4027",
"|  c #664029",
" . c #65412B",
".. c #64402A",
"X. c #67412A",
"o. c #61402D",
"O. c #63402C",
"+. c #62412E",
"@. c #63422F",
"#. c #66422C",
"$. c #65422C",
"%. c #694128",
"&. c #6A4229",
"*. c #6B432A",
"=. c #6C442B",
"-. c #69432C",
";. c #6A442D",
":. c #68442E",
">. c #6D452C",
",. c #6E462D",
"<. c #6C462F",
"1. c #6F472E",
"2. c #6B432C",
"3. c #6E492F",
"4. c #6E492F",
"5. c #71452D",
"6. c #72492E",
"7. c #784C2F",
"8. c #644330",
"9. c #654431",
"0. c #664532",
"q. c #644431",
"w. c #6D4730",
"e. c #6B4531",
"r. c #674833",
"t. c #6E4831",
"y. c #6F4A30",
"u. c #6B4934",
"i. c #6D4D39",
"p. c #734631",
"a. c #704B31",
"s. c #724A31",
"d. c #734B32",
"f. c #724D33",
"g. c #744C33",
"h. c #714B34",
"j. c #734D36",
"k. c #744F35",
"l. c #734C33",
"z. c #794D33",
"x. c #724D39",
"c. c #755036",
"v. c #7B5236",
"b. c #775238",
"n. c #75523B",
"m. c #7B543B",
"M. c #7E593F",
"N. c #7E5B42",
"B. c #825639",
"V. c #84593D",
"C. c #815D42",
/* pixels */
"n n v v q q q q q 9 q q 9 9 9 2 3 3 3 3 1 2 2 2 9 9 9 7 7 < 6 7 # - % - % - * : : : 6 : : - = & * = = = & @ @ @ + + + + & + & + ",
"q q q 9 9 9 9 9 9 9 9 2 2 9 9 9 1 1 1 & > 1 * & : : : - - - # # # # # # $ $ $ $ - - : - - - $ $ = $ & @ @ @ & + + $ + + + + & + ",
"b i g i i r q 0 2 9 q q q q p p 3 2 2 2 1 1 1 1 , 7 6 6 - - - - , - - - : - : 6 6 : 6 : : - - = ; & = & ; ; ; & & & + & + & & + ",
"9.8.8.8.o.o.W ( p p i i p p p ' ' ' ' p q q 3 9 7 9 7 7 7 7 7 7 7 6 , 7 6 7 7 6 - : : 6 * : - & ; ; ; ; ; ; 8 8 + & & + $ + & + ",
"9.9.9.8.O.8.( o.o.n n n r r r r 3 2 q 1 2 1 2 : : : - 7 - , 6 6 : : * - - : - = $ $ = $ % $ $ + $ @ @ @ & & & @ + o + + + + o o ",
"( n W n b v i i b p p q q 2 2 2 1 > > 1 : * * * : : , - - - - 6 = = - = = % % = $ = - % = = % @ & & = @ & @ = = & & & + + + % + ",
"W W g W g i 0 e r 0 3 3 2 3 2 2 > 1 1 * : 2 1 , , 7 7 7 7 7 6 7 : : : : - : : - : : 6 : 6 6 : 6 ; : ; 1 & ; ; ; & & & & & & + + ",
"O.O.W W W W K n q 3 r 3 2 2 2 3 2 > 2 2 2 2 2 9 : : : - , 6 6 6 : 6 - : : * - = = - : 6 : : : ; ; ; ; ; ; & & ; + + + + o + o o ",
";.;.;.O.| g r 3 3 3 3 2 2 2 3 > > 1 > 1 > 1 1 : 7 7 7 7 7 7 7 7 - : - = = = $ % - : - : : - = = @ 5 & 5 5 & 1 8 > 1 @ 1 @ 1 @ 1 ",
"#.O.O.| W K J g d e g e 3 e 3 3 3 3 9 9 q 2 9 9 7 7 7 7 7 7 7 k 6 : 6 : : * - - * : : 6 6 : : : 8 5 1 8 8 8 5 8 & & 1 @ 1 @ @ @ ",
"u.u.;.;.*.;.-.;.K K P P d J 3 J b ' p p p p p p 0 0 k 7 k k k k : - : - - = - = = - - : : 6 : 6 1 & 5 & & 5 1 @ & @ 8 8 @ @ 1 @ ",
"k.s.3.;.| | | | D e e 3 3 3 3 3 3 q q q 2 3 8 9 7 7 7 k 7 7 7 7 6 : : : - : * = = - : : 6 6 6 6 8 8 8 & 8 5 5 & 1 1 1 @ 1 ' @ 1 ",
"-.-.K D D 3 S e e e 3 3 3 3 3 3 2 9 2 2 2 2 2 7 , , 6 7 7 7 6 6 6 6 6 6 6 6 : 6 : : 6 6 7 9 6 8 ' ' 5 8 8 8 8 8 1 1 @ 1 @ 1 @ @ ",
"K P P R K K P P K P P J J 3 D 3 3 3 q 2 2 2 : , - : - - : : 6 6 - - * ; - - : * - = - : 6 : : : @ @ 5 & 5 1 @ 5 + & @ @ @ @ @ @ ",
"=.=.,.,.5.3.,.5.&.{ { { [ P [ P 3 p q 2 2 2 9 : , , , 7 7 : 6 6 % = = % % = - - % - - ; - : - ; @ @ @ @ @ & @ @ @ & @ @ @ @ & @ ",
"g.g.g.k.s.3.=.&.=.=.=.{ { { { [ 3 q q 9 9 2 , : 9 7 7 7 7 9 7 7 6 9 7 7 8 7 9 6 9 8 9 9 9 6 6 6 1 & 5 1 @ 1 8 1 1 1 1 1 1 @ 1 1 ",
"b.b.c.k.f.y.y.3.P [ J K [ J J 3 r r r i r 0 q 2 2 2 2 2 q q q 2 1 1 2 : 6 : 7 7 6 6 6 6 - 6 6 # @ 1 @ 8 8 8 @ @ 8 @ 1 @ 1 8 8 8 ",
"s.s.3.3.*.*.] [ -.[ P [ ] %.[ K b p i r r r i i b b ' ' W b b i i v 9 q 9 9 7 6 6 6 6 7 - - 5 5 @ 8 @ 8 @ 1 8 @ @ @ @ & @ @ 8 @ ",
"e.;.;.| P K K e K G G K | | | W K n i 0 q 0 i p ' b ' b n g i 0 9 9 q 1 : : 6 - # - 6 # # - # - @ @ @ 8 1 @ @ & @ @ @ @ @ @ @ 5 ",
"j.j.u.s.;.-.| | | / P / | *.[ K K p r q 2 q i i 2 q 3 q q 2 2 q : 1 : , : 8 6 6 - - 6 # - - 6 # @ @ @ @ & @ @ & @ @ @ @ @ @ @ @ ",
"n.b.j.x.f.u.,.,.w.=.-.-.-.-.P D r 2 2 2 2 2 2 r 2 2 2 2 2 r r r 9 1 9 1 9 9 7 8 7 - 7 - 6 - - 4 @ @ + @ + @ @ @ + + + @ @ @ @ & ",
"=.-.-./ / K G G / / ) G G e 3 < 3 2 2 * * : * 2 1 > 1 2 2 2 q q 9 9 9 2 6 : : : - % - = 6 # # # 1 @ + + + + @ @ + + + @ @ @ @ & ",
") ) G G G t e e S e 3 3 0 < , > > 1 1 * * 1 * 1 * * * * * > 1 2 1 1 1 1 : * - % $ $ # $ # # # # @ @ @ + + + @ @ @ @ @ @ @ @ 1 5 ",
"=.e.e.e.-.e.-.e.G t e g e e 0 0 2 * > : 2 > * * : * * * * * > 1 1 1 1 1 6 , 7 7 - : - - # 5 # 5 @ @ @ + + + @ & & @ ; @ ; 5 @ 5 ",
"N.N.x.x.x.x.x.x.x.x.e.e.` _ ) t 2 q 2 2 2 2 2 9 q q q r q 2 2 2 2 2 2 1 1 : 6 6 6 6 6 6 - = 5 # @ @ @ @ & & ; @ @ @ @ @ & & @ @ ",
"e.e.` ` ` ) ) _ ) ) ) ) ) S 0 , 2 2 2 2 2 2 2 3 2 2 2 2 2 2 2 * 1 1 1 : : * ; * % % = $ = # # # & @ @ @ @ @ @ @ @ @ @ + @ @ @ & ",
"` ) ) z z z z 0 0 0 0 0 0 0 < 7 2 2 2 1 2 1 2 2 * 1 1 1 * * * * : * * & - = * - # # # $ # # # # + + @ @ @ @ + + @ + + + + o @ + ",
"` ) ) ) S 0 z z ) ) ) ) ) ) 0 0 > 2 * * * * 1 > 2 > 1 > 1 1 > * 1 1 1 : : : : ; $ $ = - 6 - 6 5 @ & & @ @ @ @ @ @ @ + + + + + + ",
"` ` ` ) ) ) ) ) ` ` ` ) ` ) S S 2 1 2 1 * 2 2 1 2 2 2 2 2 2 1 1 1 2 1 1 : : 6 : - - - - - 4 - - ; 6 ; ; @ ; ; @ @ & @ @ + + + @ ",
"e.` ` ) ) S z ) ` _ ) ) z z < 7 3 2 2 2 2 2 2 q 2 2 2 q 2 q 3 2 1 : : : * * - : - * : % = = $ $ + @ @ + + + @ + @ @ @ + + + + + ",
"` ` ) ) z z z z ) ) z z z z k 7 q 2 2 2 2 3 2 2 2 2 2 2 2 2 2 2 : : & * * % = = - - - # # - @ + o X o o + + + + @ @ + + o o . o ",
") ) ) S z z 0 z ) ) z ) ) ) ) z 2 2 2 : 2 1 2 1 1 > 2 1 2 2 2 1 * 1 : * : - * - = = - 6 # = - = = = = ; ; @ ; ; ; 1 ; & @ & @ @ ",
"/ -.O.g 3 , , , 0 0 z S ) z < 0 0 0 0 0 3 7 0 7 t r 0 3 0 2 7 3 1 1 1 1 : : : : : : 6 6 6 6 6 5 5 6 = 4 ; = ; @ 5 ; @ @ @ @ + + ",
"e K G e 3 2 < 9 z z z S ) ) ) k 0 0 0 0 0 < 0 0 0 0 , < , < , , : 1 * 1 : : : * - - - - - = # 6 # 4 = $ = @ ; ; 5 @ ; ; @ @ + + ",
"K P / / G G ) / ) z z z ) ) S z 7 < , , > , < , > , , , , , , , 2 1 : 1 : : : : = % = $ # # - # O + O @ @ = ; ; ; @ ; @ + + + + ",
"-.;.-.-.-.-.-.-.) b z z z k k 0 0 , , , , , , < , , , , , , > : 2 : 1 * : * ; - $ % - $ = # # = $ + + + @ @ ; = @ ; @ @ @ + + + ",
";.*.] ] | | | / ) G t t S S z 0 t ) 0 0 0 0 0 S 0 0 0 0 < , , > 2 : : 1 : - = * - - : - - - - = = = @ + = + = @ = = @ & @ $ + @ ",
"f.3.<.<.;.;.O.O.e.) ) ) z ) z z 0 0 0 0 0 0 7 < 0 0 0 0 0 9 , , 1 2 1 : = * - = - - - - # 6 # - = = = $ @ + @ @ @ @ = @ @ @ @ + ",
"c.f.3.6.s.s.p.-._ _ S ) z ) S z , > - > > , > > > < , 7 0 , , , 2 : : : * = % = = % 5 # - # # 4 @ + + o + + @ = = @ = @ @ & $ @ ",
"6.,.*.*.p.w.=._ _ ) S S z S S S , < > > - > > > % # > , 2 < , , 2 1 : : : % = $ # # # # # # # # X o o o + + $ @ @ = @ $ @ + @ @ ",
"g.z.g.6.6.s.p.5.z._ _ _ E E S S ) S ) 0 0 0 7 0 , , , , , , , , : 2 2 2 7 : : - $ $ $ # # # 4 # o o o o + + @ @ ; & ; @ @ ; ; ; ",
"B.m.B.v.v.z.z.b._ _ E S S S S < 0 7 , , > , > > 0 , , , , < , 0 * 1 1 1 6 : = = % $ # $ # # # # O + + @ + @ ; = 5 @ @ @ @ @ @ @ ",
"5.5.5.5.5.} &.E 7.E E E S S S < 7 0 0 , , , < , , , , , , , 0 , : : 1 1 : * = $ = = - $ # - # # = = 5 5 5 5 5 5 8 5 5 ; @ @ @ @ ",
"v.v.7.z.p.p.p.6._ 7._ E _ _ E S S S z t z z z z < , 0 9 < , , , 1 2 1 1 7 : : * , 6 6 6 6 6 6 5 5 6 8 8 8 8 8 8 8 5 5 5 5 ; ; 8 ",
"B.B.B.B.B.7.z.z.7.E p._ p.p.p._ ) b b z z b ) ) 0 0 t z t r t 0 q 2 9 2 9 8 7 6 7 7 6 6 5 6 6 5 5 5 6 8 8 8 5 5 ; ; ; ; ; 5 5 8 ",
"7.7.7.} 5.5.5.} E E E 7.p.p.p._ ) ) ) ) b S b z b ) ) ) ) ) ) b q q q q 9 9 7 6 6 : 6 : 5 = - 4 = = @ 5 = = ; @ @ @ @ $ ; ; ; 5 ",
"B.B.B.B.B.p.7.7.E 5._ p.p.p._ _ ) ) ) b S t t ) 0 S ) ) ) ) ) r 9 2 1 1 : 6 6 6 - : - - # - # # $ @ @ + + + @ @ @ @ + + @ @ @ ; ",
"B.B.B.B.z.z.7.7.5.p.p.p.z.p.=._ ) ) z r 0 9 0 9 0 7 9 r y 0 9 9 2 : 1 & & & - & 6 : 6 - 6 # - # = @ @ + + + @ @ & @ @ @ @ @ @ @ ",
"V.V.v.v.c.c.,.,.6.,.p.,.e._ S e 9 9 7 , 9 9 9 9 6 , : , 9 2 9 9 q q q 8 8 8 8 8 & 8 8 5 & 5 ; ; + @ @ + @ @ @ @ O O @ @ O @ @ 4 ",
"7.6.,.,.4.4.*.%.=.%._ -._ ) S 0 v 9 7 9 9 9 9 8 : 6 : : : 7 9 8 1 & 1 1 & & & & & @ + + + X X X + O X + O @ @ O 5 @ @ 5 @ 5 5 5 ",
"f.3.4.4.4.4.4.r.*.O.| ) ) S 3 , k 9 7 7 6 9 : 6 : 6 : : * : : : & & & 1 8 & & & & @ & @ @ @ @ @ O + + + @ @ @ @ @ 5 @ @ 4 4 5 5 ",
"C.M.M.M.M.M.b.c.y.u.e.u.u.e.( z Z v 9 9 9 k 9 9 9 9 9 9 8 8 9 8 8 8 8 8 8 8 8 & 8 8 8 5 5 5 @ 5 @ @ @ @ @ @ @ 4 @ @ @ @ @ 4 4 5 ",
"N.M.M.b.M.n.c.f.x.i.i.u.u.e.` A n v v x v A v v x v v y k q 9 q 1 1 8 8 8 8 8 8 & & @ & @ @ @ @ + + @ @ @ @ @ @ 5 4 4 4 5 5 5 5 ",
"r.r.' ] r.' ' ' 8.` b y y k 9 9 9 6 6 : 6 k 9 9 6 6 8 : 6 : : ; & & & & & & & @ @ @ @ X @ X X X X X O O O X @ X @ @ @ @ @ @ 5 5 ",
"#.' ' ' ' ' ' q v 9 9 6 : 6 6 $ - % $ $ = - = $ $ % % = % % $ $ & & & & + @ + + @ @ @ + X X O X . X X X . X X X X X . X X X X @ ",
"n.i.r.r.r.' ' ' A A x 9 k k 7 6 9 6 * : * * & % - * : 6 6 : : & & & & & & + + + + @ + + O O X X X X X X X X @ X @ X @ X @ @ @ @ ",
"' ' ' ' i i v n 9 9 7 9 6 6 6 = : : * : - = % $ $ & & & & @ @ @ & + & + + + X X O @ X X O X X X X X X X X @ X @ X @ @ @ @ @ @ @ ",
"f.r.r.u.u.r.i.i.i.q.A v n A A v 9 9 9 9 9 9 9 9 1 1 1 1 q q q 8 x 8 8 8 8 5 5 & @ 4 @ O @ @ 4 O @ @ @ @ @ @ @ @ @ @ @ @ @ @ @ @ ",
"r.] #.#.9.r.u.r.q.` x q 9 0 9 9 2 6 9 : : 6 : 7 1 1 1 ' p ' ' q 8 8 & 5 @ @ & X O O O O O 4 4 O @ @ @ @ @ @ @ @ X X X X X X X X ",
"D ' d d b p K n 9 9 , , , > - - = * = & = * * = = & & 1 1 & 1 8 8 8 & 5 & & @ @ O O O O O O O 4 @ @ @ @ @ X X @ . . X . .       ",
"f.f.f.f.u.u.,.;.-.) 8.) ) ) 0 , : 6 7 9 6 : 6 : * : : : & 8 & @ & 5 5 @ @ @ @ @ X X X X X O O O X O X X X X . . . . . . . . .   ",
"N.M.M.M.m.b.k.j.h.h.x.x.x.e.) 0 r v 9 k 9 9 9 9 9 k 9 9 q 8 8 8 8 5 5 5 @ X X . X X X X X X O O X X X X X X X X @ @ @ @ @ X @ X ",
"v.v.b.v.b.z.g.s.p.w.5.w.w._ S 0 v k 9 k 9 9 6 1 9 9 9 9 8 8 8 8 x x 8 8 8 5 5 5 O 4 O O O O O 4 O O @ O @ @ @ @ @ 4 5 @ 4 4 5 @ ",
"v.v.m.m.v.v.k.g.f.p.e.-._ ) S 0 v v x k 9 9 6 6 % = ; : & 8 & 5 @ @ ; @ @ @ @ @ 4 4 4 4 O 4 @ @ @ @ @ @ @ @ @ @ @ 5 @ 4 4 5 5 5 "
};
